<?xml version="1.0" encoding="utf-8" standalone="no"?>
<!DOCTYPE svg PUBLIC "-//W3C//DTD SVG 1.1//EN"
  "http://www.w3.org/Graphics/SVG/1.1/DTD/svg11.dtd">
<svg height="247.61875pt" version="1.1" viewBox="0 0 280.21875 247.61875" width="280.21875pt" xmlns="http://www.w3.org/2000/svg" xmlns:xlink="http://www.w3.org/1999/xlink">
 <metadata>
  <rdf:RDF xmlns:cc="http://creativecommons.org/ns#" xmlns:dc="http://purl.org/dc/elements/1.1/" xmlns:rdf="http://www.w3.org/1999/02/22-rdf-syntax-ns#">
   <cc:Work>
    <dc:type rdf:resource="http://purl.org/dc/dcmitype/StillImage"/>
    <dc:date>2022-04-25T17:04:42.648165</dc:date>
    <dc:format>image/svg+xml</dc:format>
    <dc:creator>
     <cc:Agent>
      <dc:title>Matplotlib v3.4.3, https://matplotlib.org/</dc:title>
     </cc:Agent>
    </dc:creator>
   </cc:Work>
  </rdf:RDF>
 </metadata>
 <defs>
  <style type="text/css">*{stroke-linecap:butt;stroke-linejoin:round;}</style>
 </defs>
 <g id="figure_1">
  <g id="patch_1">
   <path d="M 0 247.61875 
L 280.21875 247.61875 
L 280.21875 0 
L 0 0 
z
" style="fill:none;"/>
  </g>
  <g id="axes_1">
   <g id="patch_2">
    <path d="M 38.74375 214.85 
L 273.01875 214.85 
L 273.01875 7.2 
L 38.74375 7.2 
z
" style="fill:#ffffff;"/>
   </g>
   <g id="matplotlib.axis_1">
    <g id="xtick_1">
     <g id="line2d_1">
      <defs>
       <path d="M 0 0 
L 0 -3.5 
" id="m97136dc351" style="stroke:#000000;stroke-width:0.8;"/>
      </defs>
      <g>
       <use style="stroke:#000000;stroke-width:0.8;" x="49.392614" xlink:href="#m97136dc351" y="214.85"/>
      </g>
     </g>
     <g id="line2d_2">
      <defs>
       <path d="M 0 0 
L 0 3.5 
" id="m17a2de6a70" style="stroke:#000000;stroke-width:0.8;"/>
      </defs>
      <g>
       <use style="stroke:#000000;stroke-width:0.8;" x="49.392614" xlink:href="#m17a2de6a70" y="7.2"/>
      </g>
     </g>
     <g id="text_1">
      <!-- 0 -->
      <g transform="translate(46.892614 225.20625)scale(0.1 -0.1)">
       <defs>
        <path d="M 1531 116 
Q 1991 116 2162 619 
Q 2334 1122 2334 2075 
Q 2334 2834 2231 3288 
Q 2038 4131 1506 4131 
Q 975 4131 778 3263 
Q 675 2800 675 2044 
Q 675 1334 781 909 
Q 981 116 1531 116 
z
M 1522 4300 
Q 2241 4300 2638 3547 
Q 2953 2938 2953 2147 
Q 2953 1525 2759 975 
Q 2394 -59 1494 -59 
Q 878 -59 481 500 
Q 56 1097 56 2122 
Q 56 2928 341 3509 
Q 725 4300 1522 4300 
z
" id="Times-Roman-30" transform="scale(0.015625)"/>
       </defs>
       <use xlink:href="#Times-Roman-30"/>
      </g>
     </g>
    </g>
    <g id="xtick_2">
     <g id="line2d_3">
      <g>
       <use style="stroke:#000000;stroke-width:0.8;" x="84.888826" xlink:href="#m97136dc351" y="214.85"/>
      </g>
     </g>
     <g id="line2d_4">
      <g>
       <use style="stroke:#000000;stroke-width:0.8;" x="84.888826" xlink:href="#m17a2de6a70" y="7.2"/>
      </g>
     </g>
     <g id="text_2">
      <!-- 5 -->
      <g transform="translate(82.388826 225.20625)scale(0.1 -0.1)">
       <defs>
        <path d="M 478 572 
Q 656 572 945 370 
Q 1234 169 1391 169 
Q 1750 169 2019 486 
Q 2288 803 2288 1266 
Q 2288 2075 1425 2431 
Q 947 2628 534 2628 
Q 466 2628 448 2633 
Q 431 2638 406 2666 
Q 413 2691 417 2708 
Q 422 2725 428 2741 
L 1109 4234 
L 2450 4234 
Q 2550 4234 2604 4268 
Q 2659 4303 2747 4397 
L 2797 4353 
L 2553 3775 
Q 2541 3747 2484 3739 
Q 2428 3731 2363 3731 
L 1153 3731 
L 888 3184 
Q 1400 3097 1638 3019 
Q 2028 2888 2291 2631 
Q 2516 2409 2631 2132 
Q 2747 1856 2747 1547 
Q 2747 856 2255 393 
Q 1763 -69 1009 -69 
Q 703 -69 516 -9 
Q 203 88 203 338 
Q 203 431 270 501 
Q 338 572 478 572 
z
" id="Times-Roman-35" transform="scale(0.015625)"/>
       </defs>
       <use xlink:href="#Times-Roman-35"/>
      </g>
     </g>
    </g>
    <g id="xtick_3">
     <g id="line2d_5">
      <g>
       <use style="stroke:#000000;stroke-width:0.8;" x="120.385038" xlink:href="#m97136dc351" y="214.85"/>
      </g>
     </g>
     <g id="line2d_6">
      <g>
       <use style="stroke:#000000;stroke-width:0.8;" x="120.385038" xlink:href="#m17a2de6a70" y="7.2"/>
      </g>
     </g>
     <g id="text_3">
      <!-- 10 -->
      <g transform="translate(115.385038 225.20625)scale(0.1 -0.1)">
       <defs>
        <path d="M 1894 4294 
Q 1906 4278 1907 4270 
Q 1909 4263 1909 4234 
L 1909 472 
Q 1909 231 2037 165 
Q 2166 100 2516 88 
L 2516 0 
L 753 0 
L 753 94 
Q 1131 113 1247 197 
Q 1363 281 1363 563 
L 1363 3456 
Q 1363 3606 1325 3684 
Q 1288 3763 1163 3763 
Q 1081 3763 951 3717 
Q 822 3672 709 3622 
L 709 3709 
L 1856 4294 
L 1894 4294 
z
" id="Times-Roman-31" transform="scale(0.015625)"/>
       </defs>
       <use xlink:href="#Times-Roman-31"/>
       <use x="50" xlink:href="#Times-Roman-30"/>
      </g>
     </g>
    </g>
    <g id="xtick_4">
     <g id="line2d_7">
      <g>
       <use style="stroke:#000000;stroke-width:0.8;" x="155.88125" xlink:href="#m97136dc351" y="214.85"/>
      </g>
     </g>
     <g id="line2d_8">
      <g>
       <use style="stroke:#000000;stroke-width:0.8;" x="155.88125" xlink:href="#m17a2de6a70" y="7.2"/>
      </g>
     </g>
     <g id="text_4">
      <!-- 15 -->
      <g transform="translate(150.88125 225.20625)scale(0.1 -0.1)">
       <use xlink:href="#Times-Roman-31"/>
       <use x="50" xlink:href="#Times-Roman-35"/>
      </g>
     </g>
    </g>
    <g id="xtick_5">
     <g id="line2d_9">
      <g>
       <use style="stroke:#000000;stroke-width:0.8;" x="191.377462" xlink:href="#m97136dc351" y="214.85"/>
      </g>
     </g>
     <g id="line2d_10">
      <g>
       <use style="stroke:#000000;stroke-width:0.8;" x="191.377462" xlink:href="#m17a2de6a70" y="7.2"/>
      </g>
     </g>
     <g id="text_5">
      <!-- 20 -->
      <g transform="translate(186.377462 225.20625)scale(0.1 -0.1)">
       <defs>
        <path d="M 191 72 
Q 1334 1259 1743 1815 
Q 2153 2372 2153 2900 
Q 2153 3363 1903 3605 
Q 1653 3847 1306 3847 
Q 878 3847 613 3534 
Q 466 3363 331 3006 
L 197 3034 
Q 353 3753 726 4033 
Q 1100 4313 1528 4313 
Q 2056 4313 2382 3980 
Q 2709 3647 2709 3166 
Q 2709 2653 2356 2178 
Q 2003 1703 822 488 
L 2256 488 
Q 2556 488 2678 559 
Q 2800 631 2953 909 
L 3034 872 
L 2688 0 
L 191 0 
L 191 72 
z
" id="Times-Roman-32" transform="scale(0.015625)"/>
       </defs>
       <use xlink:href="#Times-Roman-32"/>
       <use x="50" xlink:href="#Times-Roman-30"/>
      </g>
     </g>
    </g>
    <g id="xtick_6">
     <g id="line2d_11">
      <g>
       <use style="stroke:#000000;stroke-width:0.8;" x="226.873674" xlink:href="#m97136dc351" y="214.85"/>
      </g>
     </g>
     <g id="line2d_12">
      <g>
       <use style="stroke:#000000;stroke-width:0.8;" x="226.873674" xlink:href="#m17a2de6a70" y="7.2"/>
      </g>
     </g>
     <g id="text_6">
      <!-- 25 -->
      <g transform="translate(221.873674 225.20625)scale(0.1 -0.1)">
       <use xlink:href="#Times-Roman-32"/>
       <use x="50" xlink:href="#Times-Roman-35"/>
      </g>
     </g>
    </g>
    <g id="xtick_7">
     <g id="line2d_13">
      <g>
       <use style="stroke:#000000;stroke-width:0.8;" x="262.369886" xlink:href="#m97136dc351" y="214.85"/>
      </g>
     </g>
     <g id="line2d_14">
      <g>
       <use style="stroke:#000000;stroke-width:0.8;" x="262.369886" xlink:href="#m17a2de6a70" y="7.2"/>
      </g>
     </g>
     <g id="text_7">
      <!-- 30 -->
      <g transform="translate(257.369886 225.20625)scale(0.1 -0.1)">
       <defs>
        <path d="M 497 544 
Q 669 544 951 366 
Q 1234 188 1431 188 
Q 1869 188 2081 483 
Q 2294 778 2294 1125 
Q 2294 1459 2122 1713 
Q 1831 2141 1141 2141 
Q 1100 2141 1062 2139 
Q 1025 2138 975 2131 
L 969 2213 
Q 1469 2394 1756 2628 
Q 2044 2863 2044 3247 
Q 2044 3588 1817 3766 
Q 1591 3944 1300 3944 
Q 956 3944 694 3691 
Q 550 3553 384 3266 
L 288 3288 
Q 413 3763 753 4047 
Q 1094 4331 1541 4331 
Q 2019 4331 2280 4068 
Q 2541 3806 2541 3463 
Q 2541 3159 2325 2906 
Q 2203 2763 1947 2584 
Q 2247 2456 2428 2284 
Q 2769 1956 2769 1453 
Q 2769 859 2301 406 
Q 1834 -47 972 -47 
Q 588 -47 433 67 
Q 278 181 278 313 
Q 278 394 329 469 
Q 381 544 497 544 
z
" id="Times-Roman-33" transform="scale(0.015625)"/>
       </defs>
       <use xlink:href="#Times-Roman-33"/>
       <use x="50" xlink:href="#Times-Roman-30"/>
      </g>
     </g>
    </g>
    <g id="text_8">
     <!-- Radius [kpc] -->
     <g transform="translate(130.192188 238.240625)scale(0.1 -0.1)">
      <defs>
       <path d="M 1272 2191 
Q 1963 2216 2259 2334 
Q 2769 2544 2769 3122 
Q 2769 3678 2313 3881 
Q 2069 3991 1666 3991 
Q 1394 3991 1333 3952 
Q 1272 3913 1272 3769 
L 1272 2191 
z
M 72 116 
Q 441 150 531 259 
Q 622 369 622 769 
L 622 3541 
Q 622 3878 520 3983 
Q 419 4088 72 4116 
L 72 4234 
L 1844 4234 
Q 2397 4234 2766 4094 
Q 3466 3828 3466 3116 
Q 3466 2638 3155 2381 
Q 2844 2125 2309 2044 
L 3628 422 
Q 3750 272 3872 203 
Q 3994 134 4184 116 
L 4184 0 
L 3153 0 
L 1628 1969 
L 1272 1953 
L 1272 694 
Q 1272 338 1380 242 
Q 1488 147 1850 116 
L 1850 0 
L 72 0 
L 72 116 
z
" id="Times-Roman-52" transform="scale(0.015625)"/>
       <path d="M 1834 1731 
Q 1475 1613 1241 1469 
Q 791 1191 791 838 
Q 791 553 978 419 
Q 1100 331 1250 331 
Q 1456 331 1645 447 
Q 1834 563 1834 741 
L 1834 1731 
z
M 234 622 
Q 234 1075 688 1378 
Q 975 1566 1834 1888 
L 1834 2153 
Q 1834 2472 1772 2597 
Q 1666 2806 1331 2806 
Q 1172 2806 1028 2725 
Q 884 2641 884 2494 
Q 884 2456 900 2367 
Q 916 2278 916 2253 
Q 916 2078 800 2009 
Q 734 1969 644 1969 
Q 503 1969 428 2061 
Q 353 2153 353 2266 
Q 353 2484 623 2723 
Q 894 2963 1416 2963 
Q 2022 2963 2238 2569 
Q 2353 2353 2353 1941 
L 2353 688 
Q 2353 506 2378 438 
Q 2419 316 2547 316 
Q 2619 316 2666 337 
Q 2713 359 2828 444 
L 2828 281 
Q 2728 159 2613 81 
Q 2438 -38 2256 -38 
Q 2044 -38 1948 100 
Q 1853 238 1844 428 
Q 1606 222 1438 122 
Q 1153 -47 897 -47 
Q 628 -47 431 142 
Q 234 331 234 622 
z
M 1425 2963 
L 1425 2963 
z
" id="Times-Roman-61" transform="scale(0.015625)"/>
       <path d="M 1516 2953 
Q 1744 2953 1934 2853 
Q 2059 2788 2175 2672 
L 2175 3666 
Q 2175 3856 2133 3928 
Q 2091 4000 1931 4000 
Q 1894 4000 1866 3997 
Q 1838 3994 1741 3984 
L 1741 4088 
L 1997 4153 
Q 2138 4191 2278 4231 
Q 2419 4272 2525 4309 
Q 2575 4325 2691 4369 
L 2709 4363 
L 2703 4034 
Q 2700 3856 2697 3667 
Q 2694 3478 2694 3294 
L 2688 741 
Q 2688 538 2738 456 
Q 2788 375 3003 375 
Q 3038 375 3072 376 
Q 3106 378 3141 384 
L 3141 281 
Q 3122 275 2688 125 
L 2197 -59 
L 2175 -31 
L 2175 353 
Q 2000 163 1872 81 
Q 1644 -59 1344 -59 
Q 813 -59 483 352 
Q 153 763 153 1303 
Q 153 1981 548 2467 
Q 944 2953 1516 2953 
z
M 1631 278 
Q 1875 278 2025 422 
Q 2175 566 2175 694 
L 2175 2034 
Q 2175 2441 1958 2608 
Q 1741 2775 1534 2775 
Q 1141 2775 922 2426 
Q 703 2078 703 1569 
Q 703 1066 936 672 
Q 1169 278 1631 278 
z
" id="Times-Roman-64" transform="scale(0.015625)"/>
       <path d="M 525 4034 
Q 525 4169 619 4266 
Q 713 4363 850 4363 
Q 984 4363 1079 4267 
Q 1175 4172 1175 4034 
Q 1175 3900 1079 3804 
Q 984 3709 850 3709 
Q 713 3709 619 3804 
Q 525 3900 525 4034 
z
M 125 88 
Q 459 119 546 201 
Q 634 284 634 650 
L 634 2141 
Q 634 2344 606 2422 
Q 559 2550 409 2550 
Q 375 2550 342 2544 
Q 309 2538 153 2494 
L 153 2591 
L 288 2634 
Q 834 2813 1050 2903 
Q 1138 2941 1163 2941 
Q 1169 2919 1169 2894 
L 1169 650 
Q 1169 294 1255 203 
Q 1341 113 1644 88 
L 1644 0 
L 125 0 
L 125 88 
z
" id="Times-Roman-69" transform="scale(0.015625)"/>
       <path d="M 991 2894 
L 991 894 
Q 991 681 1050 553 
Q 1166 316 1475 316 
Q 1688 316 1891 456 
Q 2006 534 2125 672 
L 2125 2384 
Q 2125 2625 2031 2700 
Q 1938 2775 1656 2791 
L 1656 2894 
L 2666 2894 
L 2666 694 
Q 2666 481 2742 401 
Q 2819 322 3066 331 
L 3066 244 
Q 2894 197 2812 173 
Q 2731 150 2541 88 
Q 2459 59 2184 -47 
Q 2169 -47 2166 -33 
Q 2163 -19 2163 0 
L 2163 503 
Q 1950 250 1775 128 
Q 1509 -59 1213 -59 
Q 941 -59 700 134 
Q 456 325 456 775 
L 456 2397 
Q 456 2647 350 2731 
Q 281 2784 56 2806 
L 56 2894 
L 991 2894 
z
M 1603 2931 
L 1603 2931 
z
" id="Times-Roman-75" transform="scale(0.015625)"/>
       <path d="M 331 984 
L 434 984 
Q 506 628 628 438 
Q 847 88 1269 88 
Q 1503 88 1639 217 
Q 1775 347 1775 553 
Q 1775 684 1697 806 
Q 1619 928 1422 1044 
L 1072 1244 
Q 688 1450 506 1659 
Q 325 1869 325 2153 
Q 325 2503 575 2728 
Q 825 2953 1203 2953 
Q 1369 2953 1567 2890 
Q 1766 2828 1791 2828 
Q 1847 2828 1872 2843 
Q 1897 2859 1916 2894 
L 1991 2894 
L 2013 2022 
L 1916 2022 
Q 1853 2325 1747 2494 
Q 1553 2806 1188 2806 
Q 969 2806 844 2672 
Q 719 2538 719 2356 
Q 719 2069 1150 1844 
L 1563 1622 
Q 2228 1259 2228 778 
Q 2228 409 1951 175 
Q 1675 -59 1228 -59 
Q 1041 -59 803 3 
Q 566 66 522 66 
Q 484 66 456 39 
Q 428 13 413 -25 
L 331 -25 
L 331 984 
z
M 1247 2953 
L 1247 2953 
z
" id="Times-Roman-73" transform="scale(0.015625)"/>
       <path id="Times-Roman-20" transform="scale(0.015625)"/>
       <path d="M 563 4234 
L 1909 4234 
L 1909 4081 
L 1341 4081 
Q 1153 4081 1088 3963 
Q 1050 3900 1050 3791 
L 1050 -513 
Q 1050 -656 1091 -725 
Q 1159 -847 1363 -847 
L 1909 -847 
L 1909 -1009 
L 563 -1009 
L 563 4234 
z
" id="Times-Roman-5b" transform="scale(0.015625)"/>
       <path d="M 13 88 
Q 313 109 408 187 
Q 503 266 503 525 
L 503 3656 
Q 503 3878 428 3937 
Q 353 3997 213 3997 
Q 153 3997 109 3994 
Q 66 3991 13 3984 
L 13 4072 
L 294 4147 
Q 616 4231 841 4306 
Q 978 4353 1000 4353 
Q 1019 4353 1023 4345 
Q 1028 4338 1028 4309 
L 1028 1681 
L 1894 2444 
Q 1988 2528 2020 2578 
Q 2053 2628 2053 2666 
Q 2053 2738 1983 2756 
Q 1913 2775 1731 2784 
L 1731 2872 
L 3034 2872 
L 3034 2784 
Q 2684 2763 2471 2645 
Q 2259 2528 1656 1975 
L 1472 1806 
L 2050 1056 
Q 2494 481 2719 292 
Q 2944 103 3197 81 
L 3197 0 
L 1806 0 
L 1806 88 
L 1916 94 
Q 1969 97 2012 115 
Q 2056 134 2056 178 
Q 2056 213 2040 242 
Q 2025 272 1997 309 
L 1028 1584 
L 1028 428 
Q 1028 213 1188 141 
Q 1281 97 1509 94 
L 1509 0 
L 13 0 
L 13 88 
z
" id="Times-Roman-6b" transform="scale(0.015625)"/>
       <path d="M 1022 575 
Q 1103 363 1264 258 
Q 1425 153 1644 153 
Q 1981 153 2220 489 
Q 2459 825 2459 1425 
Q 2459 2000 2211 2284 
Q 1963 2569 1634 2569 
Q 1403 2569 1212 2426 
Q 1022 2284 1022 2147 
L 1022 575 
z
M 28 -1291 
Q 322 -1272 401 -1165 
Q 481 -1059 481 -831 
L 481 2169 
Q 481 2406 423 2473 
Q 366 2541 206 2541 
Q 172 2541 142 2537 
Q 113 2534 56 2525 
L 56 2628 
L 353 2725 
Q 369 2728 981 2941 
Q 997 2941 1005 2927 
Q 1013 2913 1013 2894 
L 1013 2472 
Q 1219 2678 1375 2778 
Q 1656 2953 1953 2953 
Q 2384 2953 2695 2586 
Q 3006 2219 3006 1581 
Q 3006 956 2632 446 
Q 2259 -63 1694 -63 
Q 1519 -63 1391 -19 
Q 1191 47 1022 222 
L 1022 -800 
Q 1022 -1116 1125 -1187 
Q 1228 -1259 1575 -1284 
L 1575 -1394 
L 28 -1394 
L 28 -1291 
z
" id="Times-Roman-70" transform="scale(0.015625)"/>
       <path d="M 1591 2947 
Q 1981 2947 2264 2745 
Q 2547 2544 2547 2303 
Q 2547 2200 2475 2111 
Q 2403 2022 2253 2022 
Q 2144 2022 2061 2097 
Q 1978 2172 1941 2316 
L 1903 2466 
Q 1863 2631 1763 2700 
Q 1659 2766 1491 2766 
Q 1134 2766 889 2455 
Q 644 2144 644 1628 
Q 644 1156 914 781 
Q 1184 406 1644 406 
Q 1969 406 2222 619 
Q 2366 741 2547 1006 
L 2634 953 
Q 2456 578 2259 359 
Q 1881 -59 1384 -59 
Q 897 -59 522 325 
Q 147 709 147 1369 
Q 147 2016 556 2481 
Q 966 2947 1591 2947 
z
M 1453 2947 
L 1453 2947 
z
" id="Times-Roman-63" transform="scale(0.015625)"/>
       <path d="M 1563 -1009 
L 213 -1009 
L 213 -853 
L 784 -853 
Q 969 -853 1038 -738 
Q 1072 -675 1072 -566 
L 1072 3741 
Q 1072 3894 1011 3983 
Q 950 4072 763 4072 
L 213 4072 
L 213 4234 
L 1563 4234 
L 1563 -1009 
z
" id="Times-Roman-5d" transform="scale(0.015625)"/>
      </defs>
      <use xlink:href="#Times-Roman-52"/>
      <use x="66.699219" xlink:href="#Times-Roman-61"/>
      <use x="111.083984" xlink:href="#Times-Roman-64"/>
      <use x="161.083984" xlink:href="#Times-Roman-69"/>
      <use x="188.867188" xlink:href="#Times-Roman-75"/>
      <use x="238.867188" xlink:href="#Times-Roman-73"/>
      <use x="277.783203" xlink:href="#Times-Roman-20"/>
      <use x="302.783203" xlink:href="#Times-Roman-5b"/>
      <use x="336.083984" xlink:href="#Times-Roman-6b"/>
      <use x="386.083984" xlink:href="#Times-Roman-70"/>
      <use x="436.083984" xlink:href="#Times-Roman-63"/>
      <use x="480.46875" xlink:href="#Times-Roman-5d"/>
     </g>
    </g>
   </g>
   <g id="matplotlib.axis_2">
    <g id="ytick_1">
     <g id="line2d_15">
      <defs>
       <path d="M 0 0 
L 3.5 0 
" id="mcbf3233ee6" style="stroke:#000000;stroke-width:0.8;"/>
      </defs>
      <g>
       <use style="stroke:#000000;stroke-width:0.8;" x="38.74375" xlink:href="#mcbf3233ee6" y="205.411364"/>
      </g>
     </g>
     <g id="line2d_16">
      <defs>
       <path d="M 0 0 
L -3.5 0 
" id="m13d0105a94" style="stroke:#000000;stroke-width:0.8;"/>
      </defs>
      <g>
       <use style="stroke:#000000;stroke-width:0.8;" x="273.01875" xlink:href="#m13d0105a94" y="205.411364"/>
      </g>
     </g>
     <g id="text_9">
      <!-- 0 -->
      <g transform="translate(30.24375 208.839489)scale(0.1 -0.1)">
       <use xlink:href="#Times-Roman-30"/>
      </g>
     </g>
    </g>
    <g id="ytick_2">
     <g id="line2d_17">
      <g>
       <use style="stroke:#000000;stroke-width:0.8;" x="38.74375" xlink:href="#mcbf3233ee6" y="162.735947"/>
      </g>
     </g>
     <g id="line2d_18">
      <g>
       <use style="stroke:#000000;stroke-width:0.8;" x="273.01875" xlink:href="#m13d0105a94" y="162.735947"/>
      </g>
     </g>
     <g id="text_10">
      <!-- 50 -->
      <g transform="translate(25.24375 166.164072)scale(0.1 -0.1)">
       <use xlink:href="#Times-Roman-35"/>
       <use x="50" xlink:href="#Times-Roman-30"/>
      </g>
     </g>
    </g>
    <g id="ytick_3">
     <g id="line2d_19">
      <g>
       <use style="stroke:#000000;stroke-width:0.8;" x="38.74375" xlink:href="#mcbf3233ee6" y="120.06053"/>
      </g>
     </g>
     <g id="line2d_20">
      <g>
       <use style="stroke:#000000;stroke-width:0.8;" x="273.01875" xlink:href="#m13d0105a94" y="120.06053"/>
      </g>
     </g>
     <g id="text_11">
      <!-- 100 -->
      <g transform="translate(20.24375 123.488655)scale(0.1 -0.1)">
       <use xlink:href="#Times-Roman-31"/>
       <use x="50" xlink:href="#Times-Roman-30"/>
       <use x="100" xlink:href="#Times-Roman-30"/>
      </g>
     </g>
    </g>
    <g id="ytick_4">
     <g id="line2d_21">
      <g>
       <use style="stroke:#000000;stroke-width:0.8;" x="38.74375" xlink:href="#mcbf3233ee6" y="77.385113"/>
      </g>
     </g>
     <g id="line2d_22">
      <g>
       <use style="stroke:#000000;stroke-width:0.8;" x="273.01875" xlink:href="#m13d0105a94" y="77.385113"/>
      </g>
     </g>
     <g id="text_12">
      <!-- 150 -->
      <g transform="translate(20.24375 80.813238)scale(0.1 -0.1)">
       <use xlink:href="#Times-Roman-31"/>
       <use x="50" xlink:href="#Times-Roman-35"/>
       <use x="100" xlink:href="#Times-Roman-30"/>
      </g>
     </g>
    </g>
    <g id="ytick_5">
     <g id="line2d_23">
      <g>
       <use style="stroke:#000000;stroke-width:0.8;" x="38.74375" xlink:href="#mcbf3233ee6" y="34.709697"/>
      </g>
     </g>
     <g id="line2d_24">
      <g>
       <use style="stroke:#000000;stroke-width:0.8;" x="273.01875" xlink:href="#m13d0105a94" y="34.709697"/>
      </g>
     </g>
     <g id="text_13">
      <!-- 200 -->
      <g transform="translate(20.24375 38.137822)scale(0.1 -0.1)">
       <use xlink:href="#Times-Roman-32"/>
       <use x="50" xlink:href="#Times-Roman-30"/>
       <use x="100" xlink:href="#Times-Roman-30"/>
      </g>
     </g>
    </g>
    <g id="text_14">
     <!-- Circular velocity [km/s] -->
     <g transform="translate(14.05625 159.067187)rotate(-90)scale(0.1 -0.1)">
      <defs>
       <path d="M 2369 4309 
Q 2716 4309 3081 4206 
Q 3447 4103 3491 4103 
Q 3581 4103 3662 4153 
Q 3744 4203 3775 4309 
L 3909 4309 
L 3969 2872 
L 3822 2872 
Q 3694 3300 3488 3563 
Q 3094 4056 2428 4056 
Q 1756 4056 1329 3525 
Q 903 2994 903 2063 
Q 903 1206 1351 695 
Q 1800 184 2488 184 
Q 2984 184 3403 422 
Q 3644 556 3931 828 
L 4050 709 
Q 3838 441 3522 238 
Q 2984 -106 2356 -106 
Q 1325 -106 719 553 
Q 159 1163 159 2075 
Q 159 3009 750 3644 
Q 1372 4309 2369 4309 
z
M 2347 4309 
Q 2347 4309 2347 4309 
z
" id="Times-Roman-43" transform="scale(0.015625)"/>
       <path d="M 28 103 
Q 316 128 409 204 
Q 503 281 503 531 
L 503 1941 
Q 503 2250 445 2383 
Q 388 2516 234 2516 
Q 203 2516 151 2508 
Q 100 2500 44 2488 
L 44 2591 
Q 222 2653 409 2718 
Q 597 2784 669 2813 
Q 825 2872 991 2947 
Q 1013 2947 1017 2931 
Q 1022 2916 1022 2866 
L 1022 2353 
Q 1222 2631 1408 2787 
Q 1594 2944 1794 2944 
Q 1953 2944 2053 2848 
Q 2153 2753 2153 2609 
Q 2153 2481 2076 2393 
Q 2000 2306 1884 2306 
Q 1766 2306 1645 2415 
Q 1525 2525 1456 2525 
Q 1347 2525 1187 2348 
Q 1028 2172 1028 1984 
L 1028 575 
Q 1028 306 1153 201 
Q 1278 97 1569 103 
L 1569 0 
L 28 0 
L 28 103 
z
" id="Times-Roman-72" transform="scale(0.015625)"/>
       <path d="M 131 88 
Q 422 116 525 205 
Q 628 294 628 553 
L 628 3606 
Q 628 3813 594 3891 
Q 531 4022 341 4022 
Q 297 4022 245 4012 
Q 194 4003 116 3984 
L 116 4088 
Q 538 4200 1131 4388 
Q 1153 4388 1158 4369 
Q 1163 4350 1163 4288 
L 1163 541 
Q 1163 269 1256 189 
Q 1350 109 1644 88 
L 1644 0 
L 131 0 
L 131 88 
z
" id="Times-Roman-6c" transform="scale(0.015625)"/>
       <path d="M 1375 2903 
L 1375 2806 
Q 1213 2788 1145 2756 
Q 1078 2725 1078 2619 
Q 1078 2569 1092 2523 
Q 1106 2478 1141 2391 
L 1791 775 
L 2353 2206 
Q 2394 2309 2430 2421 
Q 2466 2534 2466 2594 
Q 2466 2716 2350 2769 
Q 2281 2797 2163 2806 
L 2163 2903 
L 3050 2903 
L 3050 2806 
Q 2897 2794 2830 2705 
Q 2763 2616 2634 2294 
L 1731 44 
Q 1706 -16 1690 -37 
Q 1675 -59 1647 -59 
Q 1616 -59 1594 -23 
Q 1572 13 1547 66 
L 591 2353 
Q 475 2631 344 2731 
Q 266 2788 116 2806 
L 116 2903 
L 1375 2903 
z
" id="Times-Roman-76" transform="scale(0.015625)"/>
       <path d="M 1466 2931 
Q 1906 2931 2237 2626 
Q 2569 2322 2569 1763 
L 584 1763 
Q 616 1038 912 706 
Q 1209 375 1616 375 
Q 1944 375 2169 547 
Q 2394 719 2584 1034 
L 2694 997 
Q 2566 600 2214 262 
Q 1863 -75 1353 -75 
Q 766 -75 445 369 
Q 125 813 125 1391 
Q 125 2019 497 2475 
Q 869 2931 1466 2931 
z
M 1284 2703 
Q 928 2703 741 2388 
Q 641 2219 597 1963 
L 1916 1963 
Q 1881 2275 1797 2428 
Q 1644 2703 1284 2703 
z
M 1425 2931 
L 1425 2931 
z
" id="Times-Roman-65" transform="scale(0.015625)"/>
       <path d="M 163 1450 
Q 163 2072 558 2501 
Q 953 2931 1575 2931 
Q 2194 2931 2600 2525 
Q 3006 2119 3006 1444 
Q 3006 822 2612 362 
Q 2219 -97 1594 -97 
Q 994 -97 578 343 
Q 163 784 163 1450 
z
M 1488 2744 
Q 1241 2744 1059 2581 
Q 747 2297 747 1600 
Q 747 1044 998 562 
Q 1250 81 1697 81 
Q 2047 81 2236 403 
Q 2425 725 2425 1247 
Q 2425 1788 2184 2266 
Q 1944 2744 1488 2744 
z
M 1603 2931 
L 1603 2931 
z
" id="Times-Roman-6f" transform="scale(0.015625)"/>
       <path d="M 1628 2881 
L 1628 2656 
L 991 2656 
L 984 856 
Q 984 619 1025 497 
Q 1100 281 1319 281 
Q 1431 281 1514 334 
Q 1597 388 1703 503 
L 1784 434 
L 1716 341 
Q 1553 122 1372 31 
Q 1191 -59 1022 -59 
Q 653 -59 522 269 
Q 450 447 450 763 
L 450 2656 
L 109 2656 
Q 94 2666 86 2675 
Q 78 2684 78 2700 
Q 78 2731 92 2748 
Q 106 2766 181 2828 
Q 397 3006 492 3117 
Q 588 3228 941 3703 
Q 981 3703 989 3697 
Q 997 3691 997 3650 
L 997 2881 
L 1628 2881 
z
" id="Times-Roman-74" transform="scale(0.015625)"/>
       <path d="M 88 2872 
L 1406 2872 
L 1406 2775 
Q 1250 2772 1175 2747 
Q 1031 2706 1031 2588 
Q 1031 2544 1047 2498 
Q 1063 2453 1103 2363 
L 1834 741 
L 2422 2375 
Q 2431 2400 2451 2487 
Q 2472 2575 2472 2606 
Q 2472 2688 2415 2725 
Q 2359 2763 2272 2769 
L 2175 2775 
L 2175 2872 
L 3034 2872 
L 3034 2775 
Q 2906 2759 2842 2687 
Q 2778 2616 2731 2488 
L 1747 -119 
Q 1491 -794 1256 -1097 
Q 1022 -1400 663 -1400 
Q 488 -1400 334 -1312 
Q 181 -1225 181 -1034 
Q 181 -909 273 -829 
Q 366 -750 506 -750 
Q 588 -750 748 -809 
Q 909 -869 978 -869 
Q 1153 -869 1347 -462 
Q 1541 -56 1541 81 
Q 1541 109 1531 150 
Q 1522 191 1509 222 
L 509 2384 
Q 403 2616 323 2689 
Q 244 2763 88 2784 
L 88 2872 
z
M 1575 2931 
L 1575 2931 
z
" id="Times-Roman-79" transform="scale(0.015625)"/>
       <path d="M 103 81 
Q 347 103 428 163 
Q 553 253 553 525 
L 553 2141 
Q 553 2372 492 2444 
Q 431 2516 291 2516 
Q 225 2516 192 2509 
Q 159 2503 116 2488 
L 116 2597 
L 341 2672 
Q 463 2713 741 2819 
Q 1019 2925 1034 2925 
Q 1050 2925 1053 2909 
Q 1056 2894 1056 2850 
L 1056 2428 
Q 1366 2709 1591 2817 
Q 1816 2925 2053 2925 
Q 2375 2925 2566 2706 
Q 2666 2588 2731 2384 
Q 2963 2619 3134 2731 
Q 3431 2925 3741 2925 
Q 4244 2925 4413 2516 
Q 4509 2284 4509 1784 
L 4509 488 
Q 4509 266 4607 186 
Q 4706 106 4963 81 
L 4963 0 
L 3553 0 
L 3553 88 
Q 3825 113 3911 197 
Q 3997 281 3997 541 
L 3997 1888 
Q 3997 2191 3931 2334 
Q 3816 2591 3478 2591 
Q 3275 2591 3075 2456 
Q 2959 2378 2791 2206 
L 2791 606 
Q 2791 353 2880 222 
Q 2969 91 3256 81 
L 3256 0 
L 1822 0 
L 1822 81 
Q 2119 119 2200 225 
Q 2281 331 2281 747 
L 2281 1622 
Q 2281 2103 2219 2284 
Q 2116 2591 1781 2591 
Q 1591 2591 1406 2486 
Q 1222 2381 1081 2213 
L 1081 503 
Q 1081 266 1164 175 
Q 1247 84 1525 81 
L 1525 0 
L 103 0 
L 103 81 
z
" id="Times-Roman-6d" transform="scale(0.015625)"/>
       <path d="M 1434 4325 
L 1747 4325 
L 331 -106 
L 13 -106 
L 1434 4325 
z
" id="Times-Roman-2f" transform="scale(0.015625)"/>
      </defs>
      <use xlink:href="#Times-Roman-43"/>
      <use x="66.699219" xlink:href="#Times-Roman-69"/>
      <use x="94.482422" xlink:href="#Times-Roman-72"/>
      <use x="127.783203" xlink:href="#Times-Roman-63"/>
      <use x="172.167969" xlink:href="#Times-Roman-75"/>
      <use x="222.167969" xlink:href="#Times-Roman-6c"/>
      <use x="249.951172" xlink:href="#Times-Roman-61"/>
      <use x="294.335938" xlink:href="#Times-Roman-72"/>
      <use x="327.636719" xlink:href="#Times-Roman-20"/>
      <use x="352.636719" xlink:href="#Times-Roman-76"/>
      <use x="402.636719" xlink:href="#Times-Roman-65"/>
      <use x="447.021484" xlink:href="#Times-Roman-6c"/>
      <use x="474.804688" xlink:href="#Times-Roman-6f"/>
      <use x="524.804688" xlink:href="#Times-Roman-63"/>
      <use x="569.189453" xlink:href="#Times-Roman-69"/>
      <use x="596.972656" xlink:href="#Times-Roman-74"/>
      <use x="624.755859" xlink:href="#Times-Roman-79"/>
      <use x="674.755859" xlink:href="#Times-Roman-20"/>
      <use x="699.755859" xlink:href="#Times-Roman-5b"/>
      <use x="733.056641" xlink:href="#Times-Roman-6b"/>
      <use x="783.056641" xlink:href="#Times-Roman-6d"/>
      <use x="860.839844" xlink:href="#Times-Roman-2f"/>
      <use x="888.623047" xlink:href="#Times-Roman-73"/>
      <use x="927.539062" xlink:href="#Times-Roman-5d"/>
     </g>
    </g>
   </g>
   <g id="line2d_25">
    <path clip-path="url(#p3dbe0eb06e)" d="M 49.392614 205.411364 
L 50.102538 192.132759 
L 51.522386 171.886978 
L 52.942235 155.100752 
L 54.362083 140.519376 
L 55.781932 127.60941 
L 57.911705 110.727328 
L 60.041477 96.261239 
L 62.17125 83.779992 
L 64.301023 72.974934 
L 66.430795 63.610661 
L 68.560568 55.499691 
L 70.690341 48.4884 
L 72.820114 42.447978 
L 74.949886 37.268665 
L 77.079659 32.855748 
L 79.209432 29.12667 
L 81.339205 26.008823 
L 83.468977 23.438038 
L 85.59875 21.35742 
L 87.728523 19.715935 
L 89.858295 18.467906 
L 91.988068 17.572579 
L 94.117841 16.992658 
L 96.247614 16.695257 
L 98.377386 16.649769 
L 100.507159 16.829437 
L 102.636932 17.209021 
L 105.476629 17.988421 
L 108.316326 19.036326 
L 111.156023 20.311672 
L 114.705644 22.169356 
L 118.965189 24.705293 
L 123.934659 27.974892 
L 130.323977 32.497102 
L 140.972841 40.38091 
L 153.041553 49.247558 
L 161.560644 55.219081 
L 168.659886 59.941099 
L 175.759129 64.405816 
L 182.858371 68.604774 
L 189.957614 72.539289 
L 197.056856 76.217052 
L 204.156098 79.650624 
L 211.255341 82.854537 
L 219.064508 86.132734 
L 226.873674 89.174136 
L 235.392765 92.246531 
L 243.911856 95.088243 
L 253.140871 97.933566 
L 262.369886 100.563489 
L 262.369886 100.563489 
" style="fill:none;stroke:#1f77b4;stroke-linecap:square;"/>
   </g>
   <g id="patch_3">
    <path d="M 38.74375 214.85 
L 38.74375 7.2 
" style="fill:none;stroke:#000000;stroke-linecap:square;stroke-linejoin:miter;stroke-width:0.8;"/>
   </g>
   <g id="patch_4">
    <path d="M 273.01875 214.85 
L 273.01875 7.2 
" style="fill:none;stroke:#000000;stroke-linecap:square;stroke-linejoin:miter;stroke-width:0.8;"/>
   </g>
   <g id="patch_5">
    <path d="M 38.74375 214.85 
L 273.01875 214.85 
" style="fill:none;stroke:#000000;stroke-linecap:square;stroke-linejoin:miter;stroke-width:0.8;"/>
   </g>
   <g id="patch_6">
    <path d="M 38.74375 7.2 
L 273.01875 7.2 
" style="fill:none;stroke:#000000;stroke-linecap:square;stroke-linejoin:miter;stroke-width:0.8;"/>
   </g>
   <g id="legend_1">
    <g id="patch_7">
     <path d="M 66.389062 209.85 
L 266.01875 209.85 
Q 268.01875 209.85 268.01875 207.85 
L 268.01875 194.671875 
Q 268.01875 192.671875 266.01875 192.671875 
L 66.389062 192.671875 
Q 64.389062 192.671875 64.389062 194.671875 
L 64.389062 207.85 
Q 64.389062 209.85 66.389062 209.85 
z
" style="fill:#ffffff;opacity:0.8;stroke:#cccccc;stroke-linejoin:miter;"/>
    </g>
    <g id="line2d_26">
     <path d="M 68.389062 200.171875 
L 88.389062 200.171875 
" style="fill:none;stroke:#1f77b4;stroke-linecap:square;"/>
    </g>
    <g id="line2d_27"/>
    <g id="text_15">
     <!-- totM=1.0e+11, Reff=5.0, n=1.0, invq=5.0 -->
     <g transform="translate(96.389062 203.671875)scale(0.1 -0.1)">
      <defs>
       <path d="M 72 116 
Q 469 156 581 295 
Q 694 434 694 941 
L 694 3541 
Q 694 3888 584 3992 
Q 475 4097 88 4116 
L 88 4234 
L 1353 4234 
L 2834 1006 
L 4250 4234 
L 5525 4234 
L 5525 4116 
Q 5169 4091 5066 3986 
Q 4963 3881 4963 3541 
L 4963 694 
Q 4963 344 5066 245 
Q 5169 147 5525 116 
L 5525 0 
L 3731 0 
L 3731 116 
Q 4119 147 4214 255 
Q 4309 363 4309 769 
L 4309 3644 
L 2672 0 
L 2584 0 
L 975 3494 
L 975 941 
Q 975 416 1128 256 
Q 1228 153 1575 116 
L 1575 0 
L 72 0 
L 72 116 
z
" id="Times-Roman-4d" transform="scale(0.015625)"/>
       <path d="M 3422 1191 
L 3422 753 
L 191 753 
L 191 1191 
L 3422 1191 
z
M 3422 2481 
L 3422 2044 
L 191 2044 
L 191 2481 
L 3422 2481 
z
" id="Times-Roman-3d" transform="scale(0.015625)"/>
       <path d="M 1044 -75 
Q 894 -75 791 29 
Q 688 134 688 281 
Q 688 428 792 531 
Q 897 634 1044 634 
Q 1191 634 1294 531 
Q 1397 428 1397 281 
Q 1397 134 1295 29 
Q 1194 -75 1044 -75 
z
" id="Times-Roman-2e" transform="scale(0.015625)"/>
       <path d="M 1591 3234 
L 2028 3234 
L 2028 1834 
L 3422 1834 
L 3422 1397 
L 2028 1397 
L 2028 0 
L 1591 0 
L 1591 1397 
L 191 1397 
L 191 1834 
L 1591 1834 
L 1591 3234 
z
" id="Times-Roman-2b" transform="scale(0.015625)"/>
       <path d="M 1569 66 
Q 1569 -250 1341 -522 
Q 1113 -794 850 -913 
L 791 -788 
Q 1091 -619 1205 -422 
Q 1319 -225 1319 -94 
Q 1319 -50 1291 -37 
Q 1263 -25 1231 -25 
L 1022 -47 
Q 891 -47 781 39 
Q 672 125 672 288 
Q 672 413 762 531 
Q 853 650 1059 650 
Q 1256 650 1412 495 
Q 1569 341 1569 66 
z
" id="Times-Roman-2c" transform="scale(0.015625)"/>
       <path d="M 125 88 
Q 456 103 561 211 
Q 666 319 666 666 
L 666 2672 
L 131 2672 
L 131 2881 
L 666 2881 
Q 666 3375 800 3716 
Q 1056 4369 1741 4369 
Q 2016 4369 2233 4259 
Q 2450 4150 2450 3966 
Q 2450 3863 2375 3781 
Q 2300 3700 2194 3700 
Q 2103 3700 2037 3754 
Q 1972 3809 1881 3947 
L 1828 4028 
Q 1784 4094 1725 4139 
Q 1666 4184 1559 4184 
Q 1322 4184 1238 3950 
Q 1191 3825 1191 3622 
L 1191 2881 
L 1975 2881 
L 1975 2672 
L 1197 2672 
L 1197 666 
Q 1197 313 1292 214 
Q 1388 116 1791 88 
L 1791 0 
L 125 0 
L 125 88 
z
" id="Times-Roman-66" transform="scale(0.015625)"/>
       <path d="M 116 88 
Q 338 116 427 198 
Q 516 281 516 569 
L 516 2153 
Q 516 2353 478 2434 
Q 419 2553 234 2553 
Q 206 2553 176 2550 
Q 147 2547 103 2541 
L 103 2650 
Q 231 2688 709 2844 
L 1003 2941 
Q 1025 2941 1029 2925 
Q 1034 2909 1034 2881 
L 1034 2422 
Q 1322 2691 1484 2791 
Q 1728 2944 1991 2944 
Q 2203 2944 2378 2822 
Q 2716 2584 2716 1975 
L 2716 516 
Q 2716 291 2806 191 
Q 2897 91 3109 88 
L 3109 0 
L 1775 0 
L 1775 88 
Q 2003 119 2093 214 
Q 2184 309 2184 628 
L 2184 1963 
Q 2184 2231 2084 2407 
Q 1984 2584 1716 2584 
Q 1531 2584 1341 2459 
Q 1234 2388 1066 2222 
L 1066 472 
Q 1066 247 1166 170 
Q 1266 94 1481 88 
L 1481 0 
L 116 0 
L 116 88 
z
M 1603 2944 
L 1603 2944 
z
" id="Times-Roman-6e" transform="scale(0.015625)"/>
       <path d="M 1525 334 
Q 1600 334 1726 359 
Q 1853 384 1963 444 
Q 2113 525 2144 587 
Q 2175 650 2175 822 
L 2175 2141 
Q 2175 2388 2100 2525 
Q 1959 2775 1569 2775 
Q 1125 2775 914 2408 
Q 703 2041 703 1569 
Q 703 1016 917 675 
Q 1131 334 1525 334 
z
M 1597 2947 
Q 1809 2947 1972 2888 
Q 2081 2850 2303 2725 
L 2650 2931 
Q 2678 2944 2694 2947 
Q 2709 2934 2712 2928 
Q 2716 2922 2716 2888 
L 2716 -913 
Q 2716 -1078 2775 -1159 
Q 2866 -1281 3125 -1306 
L 3125 -1394 
L 1613 -1394 
L 1613 -1291 
Q 1891 -1288 2027 -1197 
Q 2163 -1106 2163 -794 
L 2163 397 
Q 1944 181 1784 88 
Q 1522 -66 1194 -66 
Q 803 -66 478 295 
Q 153 656 153 1356 
Q 153 2000 554 2473 
Q 956 2947 1597 2947 
z
" id="Times-Roman-71" transform="scale(0.015625)"/>
      </defs>
      <use xlink:href="#Times-Roman-74"/>
      <use x="27.783203" xlink:href="#Times-Roman-6f"/>
      <use x="77.783203" xlink:href="#Times-Roman-74"/>
      <use x="105.566406" xlink:href="#Times-Roman-4d"/>
      <use x="194.482422" xlink:href="#Times-Roman-3d"/>
      <use x="250.878906" xlink:href="#Times-Roman-31"/>
      <use x="300.878906" xlink:href="#Times-Roman-2e"/>
      <use x="325.878906" xlink:href="#Times-Roman-30"/>
      <use x="375.878906" xlink:href="#Times-Roman-65"/>
      <use x="420.263672" xlink:href="#Times-Roman-2b"/>
      <use x="476.660156" xlink:href="#Times-Roman-31"/>
      <use x="526.660156" xlink:href="#Times-Roman-31"/>
      <use x="576.660156" xlink:href="#Times-Roman-2c"/>
      <use x="601.660156" xlink:href="#Times-Roman-20"/>
      <use x="626.660156" xlink:href="#Times-Roman-52"/>
      <use x="693.359375" xlink:href="#Times-Roman-65"/>
      <use x="737.744141" xlink:href="#Times-Roman-66"/>
      <use x="771.044922" xlink:href="#Times-Roman-66"/>
      <use x="804.345703" xlink:href="#Times-Roman-3d"/>
      <use x="860.742188" xlink:href="#Times-Roman-35"/>
      <use x="910.742188" xlink:href="#Times-Roman-2e"/>
      <use x="935.742188" xlink:href="#Times-Roman-30"/>
      <use x="985.742188" xlink:href="#Times-Roman-2c"/>
      <use x="1010.742188" xlink:href="#Times-Roman-20"/>
      <use x="1035.742188" xlink:href="#Times-Roman-6e"/>
      <use x="1085.742188" xlink:href="#Times-Roman-3d"/>
      <use x="1142.138672" xlink:href="#Times-Roman-31"/>
      <use x="1192.138672" xlink:href="#Times-Roman-2e"/>
      <use x="1217.138672" xlink:href="#Times-Roman-30"/>
      <use x="1267.138672" xlink:href="#Times-Roman-2c"/>
      <use x="1292.138672" xlink:href="#Times-Roman-20"/>
      <use x="1317.138672" xlink:href="#Times-Roman-69"/>
      <use x="1344.921875" xlink:href="#Times-Roman-6e"/>
      <use x="1394.921875" xlink:href="#Times-Roman-76"/>
      <use x="1444.921875" xlink:href="#Times-Roman-71"/>
      <use x="1494.921875" xlink:href="#Times-Roman-3d"/>
      <use x="1551.318359" xlink:href="#Times-Roman-35"/>
      <use x="1601.318359" xlink:href="#Times-Roman-2e"/>
      <use x="1626.318359" xlink:href="#Times-Roman-30"/>
     </g>
    </g>
   </g>
  </g>
 </g>
 <defs>
  <clipPath id="p3dbe0eb06e">
   <rect height="207.65" width="234.275" x="38.74375" y="7.2"/>
  </clipPath>
 </defs>
</svg>
