<?xml version="1.0" encoding="utf-8" standalone="no"?>
<!DOCTYPE svg PUBLIC "-//W3C//DTD SVG 1.1//EN"
  "http://www.w3.org/Graphics/SVG/1.1/DTD/svg11.dtd">
<svg xmlns:xlink="http://www.w3.org/1999/xlink" width="288pt" height="252pt" viewBox="0 0 288 252" xmlns="http://www.w3.org/2000/svg" version="1.1">
 <metadata>
  <rdf:RDF xmlns:dc="http://purl.org/dc/elements/1.1/" xmlns:cc="http://creativecommons.org/ns#" xmlns:rdf="http://www.w3.org/1999/02/22-rdf-syntax-ns#">
   <cc:Work>
    <dc:type rdf:resource="http://purl.org/dc/dcmitype/StillImage"/>
    <dc:date>2022-04-22T19:08:11.801614</dc:date>
    <dc:format>image/svg+xml</dc:format>
    <dc:creator>
     <cc:Agent>
      <dc:title>Matplotlib v3.5.1, https://matplotlib.org/</dc:title>
     </cc:Agent>
    </dc:creator>
   </cc:Work>
  </rdf:RDF>
 </metadata>
 <defs>
  <style type="text/css">*{stroke-linejoin: round; stroke-linecap: butt}</style>
 </defs>
 <g id="figure_1">
  <g id="patch_1">
   <path d="M 0 252 
L 288 252 
L 288 0 
L 0 0 
z
" style="fill: #ffffff"/>
  </g>
  <g id="axes_1">
   <g id="patch_2">
    <path d="M 50.87 210.04 
L 277.2 210.04 
L 277.2 10.8 
L 50.87 10.8 
z
" style="fill: #ffffff"/>
   </g>
   <g id="matplotlib.axis_1">
    <g id="xtick_1">
     <g id="line2d_1">
      <defs>
       <path id="m6c8bc6ac7e" d="M 0 0 
L 0 3.5 
" style="stroke: #000000; stroke-width: 0.8"/>
      </defs>
      <g>
       <use xlink:href="#m6c8bc6ac7e" x="61.157727" y="210.04" style="stroke: #000000; stroke-width: 0.8"/>
      </g>
     </g>
     <g id="text_1">
      <!-- 0 -->
      <g transform="translate(57.976477 224.638438)scale(0.1 -0.1)">
       <defs>
        <path id="DejaVuSans-30" d="M 2034 4250 
Q 1547 4250 1301 3770 
Q 1056 3291 1056 2328 
Q 1056 1369 1301 889 
Q 1547 409 2034 409 
Q 2525 409 2770 889 
Q 3016 1369 3016 2328 
Q 3016 3291 2770 3770 
Q 2525 4250 2034 4250 
z
M 2034 4750 
Q 2819 4750 3233 4129 
Q 3647 3509 3647 2328 
Q 3647 1150 3233 529 
Q 2819 -91 2034 -91 
Q 1250 -91 836 529 
Q 422 1150 422 2328 
Q 422 3509 836 4129 
Q 1250 4750 2034 4750 
z
" transform="scale(0.015625)"/>
       </defs>
       <use xlink:href="#DejaVuSans-30"/>
      </g>
     </g>
    </g>
    <g id="xtick_2">
     <g id="line2d_2">
      <g>
       <use xlink:href="#m6c8bc6ac7e" x="95.450152" y="210.04" style="stroke: #000000; stroke-width: 0.8"/>
      </g>
     </g>
     <g id="text_2">
      <!-- 5 -->
      <g transform="translate(92.268902 224.638438)scale(0.1 -0.1)">
       <defs>
        <path id="DejaVuSans-35" d="M 691 4666 
L 3169 4666 
L 3169 4134 
L 1269 4134 
L 1269 2991 
Q 1406 3038 1543 3061 
Q 1681 3084 1819 3084 
Q 2600 3084 3056 2656 
Q 3513 2228 3513 1497 
Q 3513 744 3044 326 
Q 2575 -91 1722 -91 
Q 1428 -91 1123 -41 
Q 819 9 494 109 
L 494 744 
Q 775 591 1075 516 
Q 1375 441 1709 441 
Q 2250 441 2565 725 
Q 2881 1009 2881 1497 
Q 2881 1984 2565 2268 
Q 2250 2553 1709 2553 
Q 1456 2553 1204 2497 
Q 953 2441 691 2322 
L 691 4666 
z
" transform="scale(0.015625)"/>
       </defs>
       <use xlink:href="#DejaVuSans-35"/>
      </g>
     </g>
    </g>
    <g id="xtick_3">
     <g id="line2d_3">
      <g>
       <use xlink:href="#m6c8bc6ac7e" x="129.742576" y="210.04" style="stroke: #000000; stroke-width: 0.8"/>
      </g>
     </g>
     <g id="text_3">
      <!-- 10 -->
      <g transform="translate(123.380076 224.638438)scale(0.1 -0.1)">
       <defs>
        <path id="DejaVuSans-31" d="M 794 531 
L 1825 531 
L 1825 4091 
L 703 3866 
L 703 4441 
L 1819 4666 
L 2450 4666 
L 2450 531 
L 3481 531 
L 3481 0 
L 794 0 
L 794 531 
z
" transform="scale(0.015625)"/>
       </defs>
       <use xlink:href="#DejaVuSans-31"/>
       <use xlink:href="#DejaVuSans-30" x="63.623047"/>
      </g>
     </g>
    </g>
    <g id="xtick_4">
     <g id="line2d_4">
      <g>
       <use xlink:href="#m6c8bc6ac7e" x="164.035" y="210.04" style="stroke: #000000; stroke-width: 0.8"/>
      </g>
     </g>
     <g id="text_4">
      <!-- 15 -->
      <g transform="translate(157.6725 224.638438)scale(0.1 -0.1)">
       <use xlink:href="#DejaVuSans-31"/>
       <use xlink:href="#DejaVuSans-35" x="63.623047"/>
      </g>
     </g>
    </g>
    <g id="xtick_5">
     <g id="line2d_5">
      <g>
       <use xlink:href="#m6c8bc6ac7e" x="198.327424" y="210.04" style="stroke: #000000; stroke-width: 0.8"/>
      </g>
     </g>
     <g id="text_5">
      <!-- 20 -->
      <g transform="translate(191.964924 224.638438)scale(0.1 -0.1)">
       <defs>
        <path id="DejaVuSans-32" d="M 1228 531 
L 3431 531 
L 3431 0 
L 469 0 
L 469 531 
Q 828 903 1448 1529 
Q 2069 2156 2228 2338 
Q 2531 2678 2651 2914 
Q 2772 3150 2772 3378 
Q 2772 3750 2511 3984 
Q 2250 4219 1831 4219 
Q 1534 4219 1204 4116 
Q 875 4013 500 3803 
L 500 4441 
Q 881 4594 1212 4672 
Q 1544 4750 1819 4750 
Q 2544 4750 2975 4387 
Q 3406 4025 3406 3419 
Q 3406 3131 3298 2873 
Q 3191 2616 2906 2266 
Q 2828 2175 2409 1742 
Q 1991 1309 1228 531 
z
" transform="scale(0.015625)"/>
       </defs>
       <use xlink:href="#DejaVuSans-32"/>
       <use xlink:href="#DejaVuSans-30" x="63.623047"/>
      </g>
     </g>
    </g>
    <g id="xtick_6">
     <g id="line2d_6">
      <g>
       <use xlink:href="#m6c8bc6ac7e" x="232.619848" y="210.04" style="stroke: #000000; stroke-width: 0.8"/>
      </g>
     </g>
     <g id="text_6">
      <!-- 25 -->
      <g transform="translate(226.257348 224.638438)scale(0.1 -0.1)">
       <use xlink:href="#DejaVuSans-32"/>
       <use xlink:href="#DejaVuSans-35" x="63.623047"/>
      </g>
     </g>
    </g>
    <g id="xtick_7">
     <g id="line2d_7">
      <g>
       <use xlink:href="#m6c8bc6ac7e" x="266.912273" y="210.04" style="stroke: #000000; stroke-width: 0.8"/>
      </g>
     </g>
     <g id="text_7">
      <!-- 30 -->
      <g transform="translate(260.549773 224.638438)scale(0.1 -0.1)">
       <defs>
        <path id="DejaVuSans-33" d="M 2597 2516 
Q 3050 2419 3304 2112 
Q 3559 1806 3559 1356 
Q 3559 666 3084 287 
Q 2609 -91 1734 -91 
Q 1441 -91 1130 -33 
Q 819 25 488 141 
L 488 750 
Q 750 597 1062 519 
Q 1375 441 1716 441 
Q 2309 441 2620 675 
Q 2931 909 2931 1356 
Q 2931 1769 2642 2001 
Q 2353 2234 1838 2234 
L 1294 2234 
L 1294 2753 
L 1863 2753 
Q 2328 2753 2575 2939 
Q 2822 3125 2822 3475 
Q 2822 3834 2567 4026 
Q 2313 4219 1838 4219 
Q 1578 4219 1281 4162 
Q 984 4106 628 3988 
L 628 4550 
Q 988 4650 1302 4700 
Q 1616 4750 1894 4750 
Q 2613 4750 3031 4423 
Q 3450 4097 3450 3541 
Q 3450 3153 3228 2886 
Q 3006 2619 2597 2516 
z
" transform="scale(0.015625)"/>
       </defs>
       <use xlink:href="#DejaVuSans-33"/>
       <use xlink:href="#DejaVuSans-30" x="63.623047"/>
      </g>
     </g>
    </g>
    <g id="text_8">
     <!-- Radius [kpc] -->
     <g transform="translate(132.963125 238.316563)scale(0.1 -0.1)">
      <defs>
       <path id="DejaVuSans-52" d="M 2841 2188 
Q 3044 2119 3236 1894 
Q 3428 1669 3622 1275 
L 4263 0 
L 3584 0 
L 2988 1197 
Q 2756 1666 2539 1819 
Q 2322 1972 1947 1972 
L 1259 1972 
L 1259 0 
L 628 0 
L 628 4666 
L 2053 4666 
Q 2853 4666 3247 4331 
Q 3641 3997 3641 3322 
Q 3641 2881 3436 2590 
Q 3231 2300 2841 2188 
z
M 1259 4147 
L 1259 2491 
L 2053 2491 
Q 2509 2491 2742 2702 
Q 2975 2913 2975 3322 
Q 2975 3731 2742 3939 
Q 2509 4147 2053 4147 
L 1259 4147 
z
" transform="scale(0.015625)"/>
       <path id="DejaVuSans-61" d="M 2194 1759 
Q 1497 1759 1228 1600 
Q 959 1441 959 1056 
Q 959 750 1161 570 
Q 1363 391 1709 391 
Q 2188 391 2477 730 
Q 2766 1069 2766 1631 
L 2766 1759 
L 2194 1759 
z
M 3341 1997 
L 3341 0 
L 2766 0 
L 2766 531 
Q 2569 213 2275 61 
Q 1981 -91 1556 -91 
Q 1019 -91 701 211 
Q 384 513 384 1019 
Q 384 1609 779 1909 
Q 1175 2209 1959 2209 
L 2766 2209 
L 2766 2266 
Q 2766 2663 2505 2880 
Q 2244 3097 1772 3097 
Q 1472 3097 1187 3025 
Q 903 2953 641 2809 
L 641 3341 
Q 956 3463 1253 3523 
Q 1550 3584 1831 3584 
Q 2591 3584 2966 3190 
Q 3341 2797 3341 1997 
z
" transform="scale(0.015625)"/>
       <path id="DejaVuSans-64" d="M 2906 2969 
L 2906 4863 
L 3481 4863 
L 3481 0 
L 2906 0 
L 2906 525 
Q 2725 213 2448 61 
Q 2172 -91 1784 -91 
Q 1150 -91 751 415 
Q 353 922 353 1747 
Q 353 2572 751 3078 
Q 1150 3584 1784 3584 
Q 2172 3584 2448 3432 
Q 2725 3281 2906 2969 
z
M 947 1747 
Q 947 1113 1208 752 
Q 1469 391 1925 391 
Q 2381 391 2643 752 
Q 2906 1113 2906 1747 
Q 2906 2381 2643 2742 
Q 2381 3103 1925 3103 
Q 1469 3103 1208 2742 
Q 947 2381 947 1747 
z
" transform="scale(0.015625)"/>
       <path id="DejaVuSans-69" d="M 603 3500 
L 1178 3500 
L 1178 0 
L 603 0 
L 603 3500 
z
M 603 4863 
L 1178 4863 
L 1178 4134 
L 603 4134 
L 603 4863 
z
" transform="scale(0.015625)"/>
       <path id="DejaVuSans-75" d="M 544 1381 
L 544 3500 
L 1119 3500 
L 1119 1403 
Q 1119 906 1312 657 
Q 1506 409 1894 409 
Q 2359 409 2629 706 
Q 2900 1003 2900 1516 
L 2900 3500 
L 3475 3500 
L 3475 0 
L 2900 0 
L 2900 538 
Q 2691 219 2414 64 
Q 2138 -91 1772 -91 
Q 1169 -91 856 284 
Q 544 659 544 1381 
z
M 1991 3584 
L 1991 3584 
z
" transform="scale(0.015625)"/>
       <path id="DejaVuSans-73" d="M 2834 3397 
L 2834 2853 
Q 2591 2978 2328 3040 
Q 2066 3103 1784 3103 
Q 1356 3103 1142 2972 
Q 928 2841 928 2578 
Q 928 2378 1081 2264 
Q 1234 2150 1697 2047 
L 1894 2003 
Q 2506 1872 2764 1633 
Q 3022 1394 3022 966 
Q 3022 478 2636 193 
Q 2250 -91 1575 -91 
Q 1294 -91 989 -36 
Q 684 19 347 128 
L 347 722 
Q 666 556 975 473 
Q 1284 391 1588 391 
Q 1994 391 2212 530 
Q 2431 669 2431 922 
Q 2431 1156 2273 1281 
Q 2116 1406 1581 1522 
L 1381 1569 
Q 847 1681 609 1914 
Q 372 2147 372 2553 
Q 372 3047 722 3315 
Q 1072 3584 1716 3584 
Q 2034 3584 2315 3537 
Q 2597 3491 2834 3397 
z
" transform="scale(0.015625)"/>
       <path id="DejaVuSans-20" transform="scale(0.015625)"/>
       <path id="DejaVuSans-5b" d="M 550 4863 
L 1875 4863 
L 1875 4416 
L 1125 4416 
L 1125 -397 
L 1875 -397 
L 1875 -844 
L 550 -844 
L 550 4863 
z
" transform="scale(0.015625)"/>
       <path id="DejaVuSans-6b" d="M 581 4863 
L 1159 4863 
L 1159 1991 
L 2875 3500 
L 3609 3500 
L 1753 1863 
L 3688 0 
L 2938 0 
L 1159 1709 
L 1159 0 
L 581 0 
L 581 4863 
z
" transform="scale(0.015625)"/>
       <path id="DejaVuSans-70" d="M 1159 525 
L 1159 -1331 
L 581 -1331 
L 581 3500 
L 1159 3500 
L 1159 2969 
Q 1341 3281 1617 3432 
Q 1894 3584 2278 3584 
Q 2916 3584 3314 3078 
Q 3713 2572 3713 1747 
Q 3713 922 3314 415 
Q 2916 -91 2278 -91 
Q 1894 -91 1617 61 
Q 1341 213 1159 525 
z
M 3116 1747 
Q 3116 2381 2855 2742 
Q 2594 3103 2138 3103 
Q 1681 3103 1420 2742 
Q 1159 2381 1159 1747 
Q 1159 1113 1420 752 
Q 1681 391 2138 391 
Q 2594 391 2855 752 
Q 3116 1113 3116 1747 
z
" transform="scale(0.015625)"/>
       <path id="DejaVuSans-63" d="M 3122 3366 
L 3122 2828 
Q 2878 2963 2633 3030 
Q 2388 3097 2138 3097 
Q 1578 3097 1268 2742 
Q 959 2388 959 1747 
Q 959 1106 1268 751 
Q 1578 397 2138 397 
Q 2388 397 2633 464 
Q 2878 531 3122 666 
L 3122 134 
Q 2881 22 2623 -34 
Q 2366 -91 2075 -91 
Q 1284 -91 818 406 
Q 353 903 353 1747 
Q 353 2603 823 3093 
Q 1294 3584 2113 3584 
Q 2378 3584 2631 3529 
Q 2884 3475 3122 3366 
z
" transform="scale(0.015625)"/>
       <path id="DejaVuSans-5d" d="M 1947 4863 
L 1947 -844 
L 622 -844 
L 622 -397 
L 1369 -397 
L 1369 4416 
L 622 4416 
L 622 4863 
L 1947 4863 
z
" transform="scale(0.015625)"/>
      </defs>
      <use xlink:href="#DejaVuSans-52"/>
      <use xlink:href="#DejaVuSans-61" x="67.232422"/>
      <use xlink:href="#DejaVuSans-64" x="128.511719"/>
      <use xlink:href="#DejaVuSans-69" x="191.988281"/>
      <use xlink:href="#DejaVuSans-75" x="219.771484"/>
      <use xlink:href="#DejaVuSans-73" x="283.150391"/>
      <use xlink:href="#DejaVuSans-20" x="335.25"/>
      <use xlink:href="#DejaVuSans-5b" x="367.037109"/>
      <use xlink:href="#DejaVuSans-6b" x="406.050781"/>
      <use xlink:href="#DejaVuSans-70" x="463.960938"/>
      <use xlink:href="#DejaVuSans-63" x="527.4375"/>
      <use xlink:href="#DejaVuSans-5d" x="582.417969"/>
     </g>
    </g>
   </g>
   <g id="matplotlib.axis_2">
    <g id="ytick_1">
     <g id="line2d_8">
      <defs>
       <path id="ma3dbe152d2" d="M 0 0 
L -3.5 0 
" style="stroke: #000000; stroke-width: 0.8"/>
      </defs>
      <g>
       <use xlink:href="#ma3dbe152d2" x="50.87" y="200.983636" style="stroke: #000000; stroke-width: 0.8"/>
      </g>
     </g>
     <g id="text_9">
      <!-- 0 -->
      <g transform="translate(37.5075 204.782855)scale(0.1 -0.1)">
       <use xlink:href="#DejaVuSans-30"/>
      </g>
     </g>
    </g>
    <g id="ytick_2">
     <g id="line2d_9">
      <g>
       <use xlink:href="#ma3dbe152d2" x="50.87" y="161.323613" style="stroke: #000000; stroke-width: 0.8"/>
      </g>
     </g>
     <g id="text_10">
      <!-- 50 -->
      <g transform="translate(31.145 165.122831)scale(0.1 -0.1)">
       <use xlink:href="#DejaVuSans-35"/>
       <use xlink:href="#DejaVuSans-30" x="63.623047"/>
      </g>
     </g>
    </g>
    <g id="ytick_3">
     <g id="line2d_10">
      <g>
       <use xlink:href="#ma3dbe152d2" x="50.87" y="121.663589" style="stroke: #000000; stroke-width: 0.8"/>
      </g>
     </g>
     <g id="text_11">
      <!-- 100 -->
      <g transform="translate(24.7825 125.462808)scale(0.1 -0.1)">
       <use xlink:href="#DejaVuSans-31"/>
       <use xlink:href="#DejaVuSans-30" x="63.623047"/>
       <use xlink:href="#DejaVuSans-30" x="127.246094"/>
      </g>
     </g>
    </g>
    <g id="ytick_4">
     <g id="line2d_11">
      <g>
       <use xlink:href="#ma3dbe152d2" x="50.87" y="82.003565" style="stroke: #000000; stroke-width: 0.8"/>
      </g>
     </g>
     <g id="text_12">
      <!-- 150 -->
      <g transform="translate(24.7825 85.802784)scale(0.1 -0.1)">
       <use xlink:href="#DejaVuSans-31"/>
       <use xlink:href="#DejaVuSans-35" x="63.623047"/>
       <use xlink:href="#DejaVuSans-30" x="127.246094"/>
      </g>
     </g>
    </g>
    <g id="ytick_5">
     <g id="line2d_12">
      <g>
       <use xlink:href="#ma3dbe152d2" x="50.87" y="42.343541" style="stroke: #000000; stroke-width: 0.8"/>
      </g>
     </g>
     <g id="text_13">
      <!-- 200 -->
      <g transform="translate(24.7825 46.14276)scale(0.1 -0.1)">
       <use xlink:href="#DejaVuSans-32"/>
       <use xlink:href="#DejaVuSans-30" x="63.623047"/>
       <use xlink:href="#DejaVuSans-30" x="127.246094"/>
      </g>
     </g>
    </g>
    <g id="text_14">
     <!-- Circular velocity [km/s] -->
     <g transform="translate(18.702813 168.346563)rotate(-90)scale(0.1 -0.1)">
      <defs>
       <path id="DejaVuSans-43" d="M 4122 4306 
L 4122 3641 
Q 3803 3938 3442 4084 
Q 3081 4231 2675 4231 
Q 1875 4231 1450 3742 
Q 1025 3253 1025 2328 
Q 1025 1406 1450 917 
Q 1875 428 2675 428 
Q 3081 428 3442 575 
Q 3803 722 4122 1019 
L 4122 359 
Q 3791 134 3420 21 
Q 3050 -91 2638 -91 
Q 1578 -91 968 557 
Q 359 1206 359 2328 
Q 359 3453 968 4101 
Q 1578 4750 2638 4750 
Q 3056 4750 3426 4639 
Q 3797 4528 4122 4306 
z
" transform="scale(0.015625)"/>
       <path id="DejaVuSans-72" d="M 2631 2963 
Q 2534 3019 2420 3045 
Q 2306 3072 2169 3072 
Q 1681 3072 1420 2755 
Q 1159 2438 1159 1844 
L 1159 0 
L 581 0 
L 581 3500 
L 1159 3500 
L 1159 2956 
Q 1341 3275 1631 3429 
Q 1922 3584 2338 3584 
Q 2397 3584 2469 3576 
Q 2541 3569 2628 3553 
L 2631 2963 
z
" transform="scale(0.015625)"/>
       <path id="DejaVuSans-6c" d="M 603 4863 
L 1178 4863 
L 1178 0 
L 603 0 
L 603 4863 
z
" transform="scale(0.015625)"/>
       <path id="DejaVuSans-76" d="M 191 3500 
L 800 3500 
L 1894 563 
L 2988 3500 
L 3597 3500 
L 2284 0 
L 1503 0 
L 191 3500 
z
" transform="scale(0.015625)"/>
       <path id="DejaVuSans-65" d="M 3597 1894 
L 3597 1613 
L 953 1613 
Q 991 1019 1311 708 
Q 1631 397 2203 397 
Q 2534 397 2845 478 
Q 3156 559 3463 722 
L 3463 178 
Q 3153 47 2828 -22 
Q 2503 -91 2169 -91 
Q 1331 -91 842 396 
Q 353 884 353 1716 
Q 353 2575 817 3079 
Q 1281 3584 2069 3584 
Q 2775 3584 3186 3129 
Q 3597 2675 3597 1894 
z
M 3022 2063 
Q 3016 2534 2758 2815 
Q 2500 3097 2075 3097 
Q 1594 3097 1305 2825 
Q 1016 2553 972 2059 
L 3022 2063 
z
" transform="scale(0.015625)"/>
       <path id="DejaVuSans-6f" d="M 1959 3097 
Q 1497 3097 1228 2736 
Q 959 2375 959 1747 
Q 959 1119 1226 758 
Q 1494 397 1959 397 
Q 2419 397 2687 759 
Q 2956 1122 2956 1747 
Q 2956 2369 2687 2733 
Q 2419 3097 1959 3097 
z
M 1959 3584 
Q 2709 3584 3137 3096 
Q 3566 2609 3566 1747 
Q 3566 888 3137 398 
Q 2709 -91 1959 -91 
Q 1206 -91 779 398 
Q 353 888 353 1747 
Q 353 2609 779 3096 
Q 1206 3584 1959 3584 
z
" transform="scale(0.015625)"/>
       <path id="DejaVuSans-74" d="M 1172 4494 
L 1172 3500 
L 2356 3500 
L 2356 3053 
L 1172 3053 
L 1172 1153 
Q 1172 725 1289 603 
Q 1406 481 1766 481 
L 2356 481 
L 2356 0 
L 1766 0 
Q 1100 0 847 248 
Q 594 497 594 1153 
L 594 3053 
L 172 3053 
L 172 3500 
L 594 3500 
L 594 4494 
L 1172 4494 
z
" transform="scale(0.015625)"/>
       <path id="DejaVuSans-79" d="M 2059 -325 
Q 1816 -950 1584 -1140 
Q 1353 -1331 966 -1331 
L 506 -1331 
L 506 -850 
L 844 -850 
Q 1081 -850 1212 -737 
Q 1344 -625 1503 -206 
L 1606 56 
L 191 3500 
L 800 3500 
L 1894 763 
L 2988 3500 
L 3597 3500 
L 2059 -325 
z
" transform="scale(0.015625)"/>
       <path id="DejaVuSans-6d" d="M 3328 2828 
Q 3544 3216 3844 3400 
Q 4144 3584 4550 3584 
Q 5097 3584 5394 3201 
Q 5691 2819 5691 2113 
L 5691 0 
L 5113 0 
L 5113 2094 
Q 5113 2597 4934 2840 
Q 4756 3084 4391 3084 
Q 3944 3084 3684 2787 
Q 3425 2491 3425 1978 
L 3425 0 
L 2847 0 
L 2847 2094 
Q 2847 2600 2669 2842 
Q 2491 3084 2119 3084 
Q 1678 3084 1418 2786 
Q 1159 2488 1159 1978 
L 1159 0 
L 581 0 
L 581 3500 
L 1159 3500 
L 1159 2956 
Q 1356 3278 1631 3431 
Q 1906 3584 2284 3584 
Q 2666 3584 2933 3390 
Q 3200 3197 3328 2828 
z
" transform="scale(0.015625)"/>
       <path id="DejaVuSans-2f" d="M 1625 4666 
L 2156 4666 
L 531 -594 
L 0 -594 
L 1625 4666 
z
" transform="scale(0.015625)"/>
      </defs>
      <use xlink:href="#DejaVuSans-43"/>
      <use xlink:href="#DejaVuSans-69" x="69.824219"/>
      <use xlink:href="#DejaVuSans-72" x="97.607422"/>
      <use xlink:href="#DejaVuSans-63" x="136.470703"/>
      <use xlink:href="#DejaVuSans-75" x="191.451172"/>
      <use xlink:href="#DejaVuSans-6c" x="254.830078"/>
      <use xlink:href="#DejaVuSans-61" x="282.613281"/>
      <use xlink:href="#DejaVuSans-72" x="343.892578"/>
      <use xlink:href="#DejaVuSans-20" x="385.005859"/>
      <use xlink:href="#DejaVuSans-76" x="416.792969"/>
      <use xlink:href="#DejaVuSans-65" x="475.972656"/>
      <use xlink:href="#DejaVuSans-6c" x="537.496094"/>
      <use xlink:href="#DejaVuSans-6f" x="565.279297"/>
      <use xlink:href="#DejaVuSans-63" x="626.460938"/>
      <use xlink:href="#DejaVuSans-69" x="681.441406"/>
      <use xlink:href="#DejaVuSans-74" x="709.224609"/>
      <use xlink:href="#DejaVuSans-79" x="748.433594"/>
      <use xlink:href="#DejaVuSans-20" x="807.613281"/>
      <use xlink:href="#DejaVuSans-5b" x="839.400391"/>
      <use xlink:href="#DejaVuSans-6b" x="878.414062"/>
      <use xlink:href="#DejaVuSans-6d" x="936.324219"/>
      <use xlink:href="#DejaVuSans-2f" x="1033.736328"/>
      <use xlink:href="#DejaVuSans-73" x="1067.427734"/>
      <use xlink:href="#DejaVuSans-5d" x="1119.527344"/>
     </g>
    </g>
   </g>
   <g id="line2d_13">
    <path d="M 61.157727 200.983636 
L 61.843576 191.846338 
L 63.215273 177.797584 
L 64.58697 166.053712 
L 65.958667 155.775279 
L 68.016212 142.37116 
L 70.073758 130.841891 
L 72.131303 120.81209 
L 74.188848 112.030377 
L 76.246394 104.312987 
L 78.303939 97.517796 
L 80.361485 91.530728 
L 82.41903 86.25755 
L 84.476576 81.618866 
L 86.534121 77.546735 
L 88.591667 73.9823 
L 90.649212 70.874097 
L 92.706758 68.176754 
L 94.764303 65.84993 
L 96.821848 63.857752 
L 98.879394 62.168149 
L 100.936939 60.752022 
L 102.994485 59.58351 
L 105.05203 58.638877 
L 107.109576 57.896921 
L 109.85297 57.189553 
L 112.596364 56.766984 
L 115.339758 56.593133 
L 118.083152 56.635598 
L 121.512394 56.95048 
L 124.941636 57.51106 
L 129.056727 58.450107 
L 133.171818 59.622733 
L 137.972758 61.218146 
L 144.145394 63.529542 
L 151.689727 66.606167 
L 166.092545 72.78018 
L 180.495364 78.867628 
L 191.468939 83.260436 
L 201.756667 87.12911 
L 211.358545 90.508391 
L 220.960424 93.665542 
L 231.248152 96.812262 
L 241.535879 99.730529 
L 252.509455 102.612076 
L 264.168879 105.436796 
L 266.912273 106.068715 
L 266.912273 106.068715 
" clip-path="url(#pfb8c4c205f)" style="fill: none; stroke: #1f77b4; stroke-width: 1.5; stroke-linecap: square"/>
   </g>
   <g id="line2d_14">
    <path d="M 61.157727 200.983636 
L 61.843576 189.724063 
L 63.215273 172.507263 
L 64.58697 158.192096 
L 65.958667 145.72482 
L 68.016212 129.564561 
L 70.073758 115.769702 
L 72.131303 103.865062 
L 74.188848 93.531557 
L 76.246394 84.535405 
L 78.303939 76.695478 
L 80.361485 69.8662 
L 82.41903 63.927199 
L 84.476576 58.777002 
L 86.534121 54.328744 
L 88.591667 50.507179 
L 90.649212 47.246526 
L 92.706758 44.488822 
L 94.764303 42.182565 
L 96.821848 40.282 
L 98.879394 38.746269 
L 100.936939 37.53834 
L 102.994485 36.625358 
L 105.05203 35.977213 
L 107.109576 35.567064 
L 109.167121 35.370252 
L 111.224667 35.364809 
L 113.968061 35.620291 
L 116.711455 36.137483 
L 119.454848 36.878587 
L 122.884091 38.069625 
L 126.313333 39.502821 
L 130.428424 41.474423 
L 135.229364 44.035298 
L 141.402 47.604185 
L 151.003879 53.463043 
L 166.778394 63.090706 
L 175.694424 68.253177 
L 183.924606 72.75346 
L 191.468939 76.633661 
L 199.013273 80.274801 
L 206.557606 83.680534 
L 214.787788 87.13908 
L 223.01797 90.345697 
L 231.248152 93.319372 
L 240.164182 96.30041 
L 249.080212 99.055149 
L 258.682091 101.794517 
L 266.912273 103.974545 
L 266.912273 103.974545 
" clip-path="url(#pfb8c4c205f)" style="fill: none; stroke: #ff7f0e; stroke-width: 1.5; stroke-linecap: square"/>
   </g>
   <g id="line2d_15">
    <path d="M 61.157727 200.983636 
L 61.843576 189.218051 
L 63.215273 171.251646 
L 64.58697 156.33285 
L 65.958667 143.355603 
L 68.016212 126.55943 
L 70.073758 112.248555 
L 72.131303 99.923142 
L 74.188848 89.247321 
L 76.246394 79.974882 
L 78.303939 71.914995 
L 80.361485 64.914237 
L 82.41903 58.845732 
L 84.476576 53.60251 
L 86.534121 49.093005 
L 88.591667 45.237903 
L 90.649212 41.96788 
L 92.706758 39.221862 
L 94.764303 36.945598 
L 96.821848 35.090905 
L 98.879394 33.614776 
L 100.936939 32.478246 
L 102.994485 31.646762 
L 105.05203 31.088675 
L 107.109576 30.775788 
L 109.167121 30.682212 
L 111.224667 30.784899 
L 113.968061 31.190476 
L 116.711455 31.862704 
L 119.454848 32.762037 
L 122.884091 34.153096 
L 126.313333 35.786554 
L 130.428424 37.995981 
L 135.229364 40.82756 
L 141.402 44.729024 
L 153.061424 52.427527 
L 164.720848 60.0345 
L 172.95103 65.15105 
L 180.495364 69.593455 
L 188.039697 73.775887 
L 195.58403 77.691478 
L 203.128364 81.34431 
L 210.672697 84.745054 
L 218.21703 87.908044 
L 226.447212 91.107041 
L 234.677394 94.065291 
L 243.593424 97.023982 
L 252.509455 99.752759 
L 262.111333 102.462265 
L 266.912273 103.736462 
L 266.912273 103.736462 
" clip-path="url(#pfb8c4c205f)" style="fill: none; stroke: #2ca02c; stroke-width: 1.5; stroke-linecap: square"/>
   </g>
   <g id="line2d_16">
    <path d="M 61.157727 200.983636 
L 61.843576 188.643282 
L 63.215273 169.828043 
L 64.58697 154.227911 
L 65.958667 140.676837 
L 67.330364 128.679074 
L 69.387909 112.98986 
L 71.445455 99.545927 
L 73.503 87.94659 
L 75.560545 77.905004 
L 77.618091 69.202399 
L 79.675636 61.664541 
L 81.733182 55.148658 
L 83.790727 49.535046 
L 85.848273 44.721696 
L 87.905818 40.62059 
L 89.963364 37.155005 
L 92.020909 34.257461 
L 94.078455 31.868325 
L 96.136 29.934721 
L 98.193545 28.409221 
L 100.251091 27.249376 
L 102.308636 26.417312 
L 104.366182 25.878367 
L 106.423727 25.60198 
L 108.481273 25.559706 
L 110.538818 25.726679 
L 112.596364 26.079442 
L 115.339758 26.803771 
L 118.083152 27.777632 
L 120.826545 28.962863 
L 124.255788 30.689286 
L 128.370879 33.046037 
L 133.171818 36.08461 
L 139.344455 40.287286 
L 150.31803 48.105498 
L 161.977455 56.327107 
L 170.207636 61.852841 
L 177.75197 66.641449 
L 184.610455 70.741729 
L 191.468939 74.594397 
L 198.327424 78.202507 
L 205.185909 81.573963 
L 212.730242 85.024011 
L 220.274576 88.221093 
L 227.818909 91.185335 
L 236.049091 94.176883 
L 244.279273 96.940036 
L 253.195303 99.702722 
L 262.797182 102.439546 
L 266.912273 103.544185 
L 266.912273 103.544185 
" clip-path="url(#pfb8c4c205f)" style="fill: none; stroke: #d62728; stroke-width: 1.5; stroke-linecap: square"/>
   </g>
   <g id="line2d_17">
    <path d="M 61.157727 200.983636 
L 61.843576 187.98331 
L 63.215273 168.196816 
L 64.58697 151.81994 
L 65.958667 137.617013 
L 67.330364 125.062215 
L 69.387909 108.677958 
L 71.445455 94.674847 
L 73.503 82.626786 
L 75.560545 72.228509 
L 77.618091 63.24707 
L 79.675636 55.49688 
L 81.733182 48.825828 
L 83.790727 43.106371 
L 85.848273 38.229829 
L 87.905818 34.102442 
L 89.963364 30.642501 
L 92.020909 27.778174 
L 94.078455 25.446002 
L 96.136 23.589752 
L 98.193545 22.15901 
L 100.251091 21.108688 
L 102.308636 20.398585 
L 104.366182 19.991938 
L 106.423727 19.856364 
L 108.481273 19.961745 
L 110.538818 20.281788 
L 112.596364 20.791704 
L 115.339758 21.729999 
L 118.083152 22.920695 
L 121.512394 24.703132 
L 124.941636 26.748006 
L 129.056727 29.466951 
L 134.543515 33.407205 
L 142.087848 39.154145 
L 159.919909 52.861707 
L 167.464242 58.343801 
L 174.322727 63.067561 
L 181.181212 67.519075 
L 188.039697 71.691105 
L 194.898182 75.585817 
L 201.756667 79.213111 
L 208.615152 82.586853 
L 215.473636 85.723597 
L 223.01797 88.921101 
L 230.562303 91.876676 
L 238.792485 94.851479 
L 247.022667 97.593197 
L 255.938697 100.329259 
L 265.540576 103.035945 
L 266.912273 103.404112 
L 266.912273 103.404112 
" clip-path="url(#pfb8c4c205f)" style="fill: none; stroke: #9467bd; stroke-width: 1.5; stroke-linecap: square"/>
   </g>
   <g id="patch_3">
    <path d="M 50.87 210.04 
L 50.87 10.8 
" style="fill: none; stroke: #000000; stroke-width: 0.8; stroke-linejoin: miter; stroke-linecap: square"/>
   </g>
   <g id="patch_4">
    <path d="M 277.2 210.04 
L 277.2 10.8 
" style="fill: none; stroke: #000000; stroke-width: 0.8; stroke-linejoin: miter; stroke-linecap: square"/>
   </g>
   <g id="patch_5">
    <path d="M 50.87 210.04 
L 277.2 210.04 
" style="fill: none; stroke: #000000; stroke-width: 0.8; stroke-linejoin: miter; stroke-linecap: square"/>
   </g>
   <g id="patch_6">
    <path d="M 50.87 10.8 
L 277.2 10.8 
" style="fill: none; stroke: #000000; stroke-width: 0.8; stroke-linejoin: miter; stroke-linecap: square"/>
   </g>
   <g id="legend_1">
    <g id="patch_7">
     <path d="M 176.832812 205.04 
L 270.2 205.04 
Q 272.2 205.04 272.2 203.04 
L 272.2 115.869687 
Q 272.2 113.869687 270.2 113.869687 
L 176.832812 113.869687 
Q 174.832812 113.869687 174.832812 115.869687 
L 174.832812 203.04 
Q 174.832812 205.04 176.832812 205.04 
z
" style="fill: #ffffff; opacity: 0.8; stroke: #cccccc; stroke-linejoin: miter"/>
    </g>
    <g id="text_15">
     <!-- Intrinsic axis ratio -->
     <g transform="translate(178.832812 125.468125)scale(0.1 -0.1)">
      <defs>
       <path id="DejaVuSans-49" d="M 628 4666 
L 1259 4666 
L 1259 0 
L 628 0 
L 628 4666 
z
" transform="scale(0.015625)"/>
       <path id="DejaVuSans-6e" d="M 3513 2113 
L 3513 0 
L 2938 0 
L 2938 2094 
Q 2938 2591 2744 2837 
Q 2550 3084 2163 3084 
Q 1697 3084 1428 2787 
Q 1159 2491 1159 1978 
L 1159 0 
L 581 0 
L 581 3500 
L 1159 3500 
L 1159 2956 
Q 1366 3272 1645 3428 
Q 1925 3584 2291 3584 
Q 2894 3584 3203 3211 
Q 3513 2838 3513 2113 
z
" transform="scale(0.015625)"/>
       <path id="DejaVuSans-78" d="M 3513 3500 
L 2247 1797 
L 3578 0 
L 2900 0 
L 1881 1375 
L 863 0 
L 184 0 
L 1544 1831 
L 300 3500 
L 978 3500 
L 1906 2253 
L 2834 3500 
L 3513 3500 
z
" transform="scale(0.015625)"/>
      </defs>
      <use xlink:href="#DejaVuSans-49"/>
      <use xlink:href="#DejaVuSans-6e" x="29.492188"/>
      <use xlink:href="#DejaVuSans-74" x="92.871094"/>
      <use xlink:href="#DejaVuSans-72" x="132.080078"/>
      <use xlink:href="#DejaVuSans-69" x="173.193359"/>
      <use xlink:href="#DejaVuSans-6e" x="200.976562"/>
      <use xlink:href="#DejaVuSans-73" x="264.355469"/>
      <use xlink:href="#DejaVuSans-69" x="316.455078"/>
      <use xlink:href="#DejaVuSans-63" x="344.238281"/>
      <use xlink:href="#DejaVuSans-20" x="399.21875"/>
      <use xlink:href="#DejaVuSans-61" x="431.005859"/>
      <use xlink:href="#DejaVuSans-78" x="492.285156"/>
      <use xlink:href="#DejaVuSans-69" x="551.464844"/>
      <use xlink:href="#DejaVuSans-73" x="579.248047"/>
      <use xlink:href="#DejaVuSans-20" x="631.347656"/>
      <use xlink:href="#DejaVuSans-72" x="663.134766"/>
      <use xlink:href="#DejaVuSans-61" x="704.248047"/>
      <use xlink:href="#DejaVuSans-74" x="765.527344"/>
      <use xlink:href="#DejaVuSans-69" x="804.736328"/>
      <use xlink:href="#DejaVuSans-6f" x="832.519531"/>
     </g>
    </g>
    <g id="line2d_18">
     <path d="M 188.616406 136.64625 
L 198.616406 136.64625 
L 208.616406 136.64625 
" style="fill: none; stroke: #1f77b4; stroke-width: 1.5; stroke-linecap: square"/>
    </g>
    <g id="text_16">
     <!-- $q_0$=1.00 -->
     <g transform="translate(216.616406 140.14625)scale(0.1 -0.1)">
      <defs>
       <path id="DejaVuSans-Oblique-71" d="M 2669 525 
Q 2438 222 2123 65 
Q 1809 -91 1428 -91 
Q 897 -91 595 267 
Q 294 625 294 1253 
Q 294 1759 480 2231 
Q 666 2703 1013 3078 
Q 1238 3322 1530 3453 
Q 1822 3584 2144 3584 
Q 2531 3584 2781 3431 
Q 3031 3278 3144 2969 
L 3244 3494 
L 3822 3494 
L 2888 -1319 
L 2309 -1319 
L 2669 525 
z
M 891 1338 
Q 891 875 1084 633 
Q 1278 391 1644 391 
Q 2188 391 2572 911 
Q 2956 1431 2956 2175 
Q 2956 2625 2757 2864 
Q 2559 3103 2188 3103 
Q 1916 3103 1684 2976 
Q 1453 2850 1281 2606 
Q 1100 2350 995 2006 
Q 891 1663 891 1338 
z
" transform="scale(0.015625)"/>
       <path id="DejaVuSans-3d" d="M 678 2906 
L 4684 2906 
L 4684 2381 
L 678 2381 
L 678 2906 
z
M 678 1631 
L 4684 1631 
L 4684 1100 
L 678 1100 
L 678 1631 
z
" transform="scale(0.015625)"/>
       <path id="DejaVuSans-2e" d="M 684 794 
L 1344 794 
L 1344 0 
L 684 0 
L 684 794 
z
" transform="scale(0.015625)"/>
      </defs>
      <use xlink:href="#DejaVuSans-Oblique-71" transform="translate(0 0.78125)"/>
      <use xlink:href="#DejaVuSans-30" transform="translate(63.476562 -15.625)scale(0.7)"/>
      <use xlink:href="#DejaVuSans-3d" transform="translate(110.74707 0.78125)"/>
      <use xlink:href="#DejaVuSans-31" transform="translate(194.536133 0.78125)"/>
      <use xlink:href="#DejaVuSans-2e" transform="translate(258.15918 0.78125)"/>
      <use xlink:href="#DejaVuSans-30" transform="translate(289.946289 0.78125)"/>
      <use xlink:href="#DejaVuSans-30" transform="translate(353.569336 0.78125)"/>
     </g>
    </g>
    <g id="line2d_19">
     <path d="M 188.616406 151.344688 
L 198.616406 151.344688 
L 208.616406 151.344688 
" style="fill: none; stroke: #ff7f0e; stroke-width: 1.5; stroke-linecap: square"/>
    </g>
    <g id="text_17">
     <!-- $q_0$=0.40 -->
     <g transform="translate(216.616406 154.844688)scale(0.1 -0.1)">
      <defs>
       <path id="DejaVuSans-34" d="M 2419 4116 
L 825 1625 
L 2419 1625 
L 2419 4116 
z
M 2253 4666 
L 3047 4666 
L 3047 1625 
L 3713 1625 
L 3713 1100 
L 3047 1100 
L 3047 0 
L 2419 0 
L 2419 1100 
L 313 1100 
L 313 1709 
L 2253 4666 
z
" transform="scale(0.015625)"/>
      </defs>
      <use xlink:href="#DejaVuSans-Oblique-71" transform="translate(0 0.78125)"/>
      <use xlink:href="#DejaVuSans-30" transform="translate(63.476562 -15.625)scale(0.7)"/>
      <use xlink:href="#DejaVuSans-3d" transform="translate(110.74707 0.78125)"/>
      <use xlink:href="#DejaVuSans-30" transform="translate(194.536133 0.78125)"/>
      <use xlink:href="#DejaVuSans-2e" transform="translate(258.15918 0.78125)"/>
      <use xlink:href="#DejaVuSans-34" transform="translate(289.946289 0.78125)"/>
      <use xlink:href="#DejaVuSans-30" transform="translate(353.569336 0.78125)"/>
     </g>
    </g>
    <g id="line2d_20">
     <path d="M 188.616406 166.043125 
L 198.616406 166.043125 
L 208.616406 166.043125 
" style="fill: none; stroke: #2ca02c; stroke-width: 1.5; stroke-linecap: square"/>
    </g>
    <g id="text_18">
     <!-- $q_0$=0.30 -->
     <g transform="translate(216.616406 169.543125)scale(0.1 -0.1)">
      <use xlink:href="#DejaVuSans-Oblique-71" transform="translate(0 0.78125)"/>
      <use xlink:href="#DejaVuSans-30" transform="translate(63.476562 -15.625)scale(0.7)"/>
      <use xlink:href="#DejaVuSans-3d" transform="translate(110.74707 0.78125)"/>
      <use xlink:href="#DejaVuSans-30" transform="translate(194.536133 0.78125)"/>
      <use xlink:href="#DejaVuSans-2e" transform="translate(258.15918 0.78125)"/>
      <use xlink:href="#DejaVuSans-33" transform="translate(289.946289 0.78125)"/>
      <use xlink:href="#DejaVuSans-30" transform="translate(353.569336 0.78125)"/>
     </g>
    </g>
    <g id="line2d_21">
     <path d="M 188.616406 180.741563 
L 198.616406 180.741563 
L 208.616406 180.741563 
" style="fill: none; stroke: #d62728; stroke-width: 1.5; stroke-linecap: square"/>
    </g>
    <g id="text_19">
     <!-- $q_0$=0.20 -->
     <g transform="translate(216.616406 184.241563)scale(0.1 -0.1)">
      <use xlink:href="#DejaVuSans-Oblique-71" transform="translate(0 0.78125)"/>
      <use xlink:href="#DejaVuSans-30" transform="translate(63.476562 -15.625)scale(0.7)"/>
      <use xlink:href="#DejaVuSans-3d" transform="translate(110.74707 0.78125)"/>
      <use xlink:href="#DejaVuSans-30" transform="translate(194.536133 0.78125)"/>
      <use xlink:href="#DejaVuSans-2e" transform="translate(258.15918 0.78125)"/>
      <use xlink:href="#DejaVuSans-32" transform="translate(284.446289 0.78125)"/>
      <use xlink:href="#DejaVuSans-30" transform="translate(348.069336 0.78125)"/>
     </g>
    </g>
    <g id="line2d_22">
     <path d="M 188.616406 195.44 
L 198.616406 195.44 
L 208.616406 195.44 
" style="fill: none; stroke: #9467bd; stroke-width: 1.5; stroke-linecap: square"/>
    </g>
    <g id="text_20">
     <!-- $q_0$=0.10 -->
     <g transform="translate(216.616406 198.94)scale(0.1 -0.1)">
      <use xlink:href="#DejaVuSans-Oblique-71" transform="translate(0 0.78125)"/>
      <use xlink:href="#DejaVuSans-30" transform="translate(63.476562 -15.625)scale(0.7)"/>
      <use xlink:href="#DejaVuSans-3d" transform="translate(110.74707 0.78125)"/>
      <use xlink:href="#DejaVuSans-30" transform="translate(194.536133 0.78125)"/>
      <use xlink:href="#DejaVuSans-2e" transform="translate(258.15918 0.78125)"/>
      <use xlink:href="#DejaVuSans-31" transform="translate(289.946289 0.78125)"/>
      <use xlink:href="#DejaVuSans-30" transform="translate(353.569336 0.78125)"/>
     </g>
    </g>
   </g>
  </g>
 </g>
 <defs>
  <clipPath id="pfb8c4c205f">
   <rect x="50.87" y="10.8" width="226.33" height="199.24"/>
  </clipPath>
 </defs>
</svg>
