<?xml version="1.0" encoding="utf-8" standalone="no"?>
<!DOCTYPE svg PUBLIC "-//W3C//DTD SVG 1.1//EN"
  "http://www.w3.org/Graphics/SVG/1.1/DTD/svg11.dtd">
<svg height="246.85pt" version="1.1" viewBox="0 0 276.31875 246.85" width="276.31875pt" xmlns="http://www.w3.org/2000/svg" xmlns:xlink="http://www.w3.org/1999/xlink">
 <metadata>
  <rdf:RDF xmlns:cc="http://creativecommons.org/ns#" xmlns:dc="http://purl.org/dc/elements/1.1/" xmlns:rdf="http://www.w3.org/1999/02/22-rdf-syntax-ns#">
   <cc:Work>
    <dc:type rdf:resource="http://purl.org/dc/dcmitype/StillImage"/>
    <dc:date>2022-04-22T20:29:52.257849</dc:date>
    <dc:format>image/svg+xml</dc:format>
    <dc:creator>
     <cc:Agent>
      <dc:title>Matplotlib v3.4.3, https://matplotlib.org/</dc:title>
     </cc:Agent>
    </dc:creator>
   </cc:Work>
  </rdf:RDF>
 </metadata>
 <defs>
  <style type="text/css">*{stroke-linecap:butt;stroke-linejoin:round;}</style>
 </defs>
 <g id="figure_1">
  <g id="patch_1">
   <path d="M 0 246.85 
L 276.31875 246.85 
L 276.31875 0 
L 0 0 
z
" style="fill:none;"/>
  </g>
  <g id="axes_1">
   <g id="patch_2">
    <path d="M 37.7 214.08125 
L 269.11875 214.08125 
L 269.11875 17.05625 
L 37.7 17.05625 
z
" style="fill:#ffffff;"/>
   </g>
   <g id="matplotlib.axis_1">
    <g id="xtick_1">
     <g id="line2d_1">
      <defs>
       <path d="M 0 0 
L 0 -3.5 
" id="m2880983e5b" style="stroke:#000000;stroke-width:0.8;"/>
      </defs>
      <g>
       <use style="stroke:#000000;stroke-width:0.8;" x="48.219034" xlink:href="#m2880983e5b" y="214.08125"/>
      </g>
     </g>
     <g id="line2d_2">
      <defs>
       <path d="M 0 0 
L 0 3.5 
" id="m7e39fd5f07" style="stroke:#000000;stroke-width:0.8;"/>
      </defs>
      <g>
       <use style="stroke:#000000;stroke-width:0.8;" x="48.219034" xlink:href="#m7e39fd5f07" y="17.05625"/>
      </g>
     </g>
     <g id="text_1">
      <!-- 0 -->
      <g transform="translate(45.719034 224.4375)scale(0.1 -0.1)">
       <defs>
        <path d="M 1531 116 
Q 1991 116 2162 619 
Q 2334 1122 2334 2075 
Q 2334 2834 2231 3288 
Q 2038 4131 1506 4131 
Q 975 4131 778 3263 
Q 675 2800 675 2044 
Q 675 1334 781 909 
Q 981 116 1531 116 
z
M 1522 4300 
Q 2241 4300 2638 3547 
Q 2953 2938 2953 2147 
Q 2953 1525 2759 975 
Q 2394 -59 1494 -59 
Q 878 -59 481 500 
Q 56 1097 56 2122 
Q 56 2928 341 3509 
Q 725 4300 1522 4300 
z
" id="Times-Roman-30" transform="scale(0.015625)"/>
       </defs>
       <use xlink:href="#Times-Roman-30"/>
      </g>
     </g>
    </g>
    <g id="xtick_2">
     <g id="line2d_3">
      <g>
       <use style="stroke:#000000;stroke-width:0.8;" x="90.29517" xlink:href="#m2880983e5b" y="214.08125"/>
      </g>
     </g>
     <g id="line2d_4">
      <g>
       <use style="stroke:#000000;stroke-width:0.8;" x="90.29517" xlink:href="#m7e39fd5f07" y="17.05625"/>
      </g>
     </g>
     <g id="text_2">
      <!-- 2 -->
      <g transform="translate(87.79517 224.4375)scale(0.1 -0.1)">
       <defs>
        <path d="M 191 72 
Q 1334 1259 1743 1815 
Q 2153 2372 2153 2900 
Q 2153 3363 1903 3605 
Q 1653 3847 1306 3847 
Q 878 3847 613 3534 
Q 466 3363 331 3006 
L 197 3034 
Q 353 3753 726 4033 
Q 1100 4313 1528 4313 
Q 2056 4313 2382 3980 
Q 2709 3647 2709 3166 
Q 2709 2653 2356 2178 
Q 2003 1703 822 488 
L 2256 488 
Q 2556 488 2678 559 
Q 2800 631 2953 909 
L 3034 872 
L 2688 0 
L 191 0 
L 191 72 
z
" id="Times-Roman-32" transform="scale(0.015625)"/>
       </defs>
       <use xlink:href="#Times-Roman-32"/>
      </g>
     </g>
    </g>
    <g id="xtick_3">
     <g id="line2d_5">
      <g>
       <use style="stroke:#000000;stroke-width:0.8;" x="132.371307" xlink:href="#m2880983e5b" y="214.08125"/>
      </g>
     </g>
     <g id="line2d_6">
      <g>
       <use style="stroke:#000000;stroke-width:0.8;" x="132.371307" xlink:href="#m7e39fd5f07" y="17.05625"/>
      </g>
     </g>
     <g id="text_3">
      <!-- 4 -->
      <g transform="translate(129.871307 224.4375)scale(0.1 -0.1)">
       <defs>
        <path d="M 1866 3650 
L 331 1481 
L 1866 1481 
L 1866 3650 
z
M 2072 4294 
L 2369 4294 
L 2369 1481 
L 3022 1481 
L 3022 1066 
L 2369 1066 
L 2369 0 
L 1872 0 
L 1872 1066 
L 72 1066 
L 72 1481 
L 2072 4294 
z
" id="Times-Roman-34" transform="scale(0.015625)"/>
       </defs>
       <use xlink:href="#Times-Roman-34"/>
      </g>
     </g>
    </g>
    <g id="xtick_4">
     <g id="line2d_7">
      <g>
       <use style="stroke:#000000;stroke-width:0.8;" x="174.447443" xlink:href="#m2880983e5b" y="214.08125"/>
      </g>
     </g>
     <g id="line2d_8">
      <g>
       <use style="stroke:#000000;stroke-width:0.8;" x="174.447443" xlink:href="#m7e39fd5f07" y="17.05625"/>
      </g>
     </g>
     <g id="text_4">
      <!-- 6 -->
      <g transform="translate(171.947443 224.4375)scale(0.1 -0.1)">
       <defs>
        <path d="M 2994 1422 
Q 2994 850 2626 390 
Q 2259 -69 1672 -69 
Q 1122 -69 670 447 
Q 219 963 219 1819 
Q 219 2922 1094 3713 
Q 1875 4375 2850 4375 
L 2866 4272 
Q 2475 4200 2192 4076 
Q 1909 3953 1688 3731 
Q 1459 3506 1259 3159 
Q 1059 2813 984 2472 
Q 1178 2591 1319 2647 
Q 1569 2747 1822 2747 
Q 2319 2747 2656 2403 
Q 2994 2059 2994 1422 
z
M 2422 1181 
Q 2422 1597 2291 1919 
Q 2072 2456 1547 2456 
Q 1063 2456 903 2169 
Q 809 2000 809 1606 
Q 809 1097 1026 609 
Q 1244 122 1713 122 
Q 2084 122 2253 439 
Q 2422 756 2422 1181 
z
" id="Times-Roman-36" transform="scale(0.015625)"/>
       </defs>
       <use xlink:href="#Times-Roman-36"/>
      </g>
     </g>
    </g>
    <g id="xtick_5">
     <g id="line2d_9">
      <g>
       <use style="stroke:#000000;stroke-width:0.8;" x="216.52358" xlink:href="#m2880983e5b" y="214.08125"/>
      </g>
     </g>
     <g id="line2d_10">
      <g>
       <use style="stroke:#000000;stroke-width:0.8;" x="216.52358" xlink:href="#m7e39fd5f07" y="17.05625"/>
      </g>
     </g>
     <g id="text_5">
      <!-- 8 -->
      <g transform="translate(214.02358 224.4375)scale(0.1 -0.1)">
       <defs>
        <path d="M 1609 106 
Q 1969 106 2153 306 
Q 2338 506 2338 806 
Q 2338 1147 2142 1358 
Q 1947 1569 1341 1997 
Q 1072 1828 950 1559 
Q 828 1291 828 1041 
Q 828 613 1048 359 
Q 1269 106 1609 106 
z
M 1650 2494 
Q 1944 2700 2056 2841 
Q 2250 3081 2250 3422 
Q 2250 3719 2067 3926 
Q 1884 4134 1513 4134 
Q 1225 4134 1037 3953 
Q 850 3772 850 3513 
Q 850 3219 1070 2967 
Q 1291 2716 1650 2494 
z
M 1169 2131 
Q 756 2463 606 2659 
Q 375 2959 375 3322 
Q 375 3734 717 4021 
Q 1059 4309 1606 4309 
Q 2109 4309 2406 4037 
Q 2703 3766 2703 3406 
Q 2703 3041 2400 2750 
Q 2225 2584 1834 2369 
Q 2366 1975 2595 1683 
Q 2825 1391 2825 994 
Q 2825 544 2486 237 
Q 2147 -69 1578 -69 
Q 1069 -69 705 214 
Q 341 497 341 959 
Q 341 1356 594 1659 
Q 759 1856 1169 2131 
z
" id="Times-Roman-38" transform="scale(0.015625)"/>
       </defs>
       <use xlink:href="#Times-Roman-38"/>
      </g>
     </g>
    </g>
    <g id="xtick_6">
     <g id="line2d_11">
      <g>
       <use style="stroke:#000000;stroke-width:0.8;" x="258.599716" xlink:href="#m2880983e5b" y="214.08125"/>
      </g>
     </g>
     <g id="line2d_12">
      <g>
       <use style="stroke:#000000;stroke-width:0.8;" x="258.599716" xlink:href="#m7e39fd5f07" y="17.05625"/>
      </g>
     </g>
     <g id="text_6">
      <!-- 10 -->
      <g transform="translate(253.599716 224.4375)scale(0.1 -0.1)">
       <defs>
        <path d="M 1894 4294 
Q 1906 4278 1907 4270 
Q 1909 4263 1909 4234 
L 1909 472 
Q 1909 231 2037 165 
Q 2166 100 2516 88 
L 2516 0 
L 753 0 
L 753 94 
Q 1131 113 1247 197 
Q 1363 281 1363 563 
L 1363 3456 
Q 1363 3606 1325 3684 
Q 1288 3763 1163 3763 
Q 1081 3763 951 3717 
Q 822 3672 709 3622 
L 709 3709 
L 1856 4294 
L 1894 4294 
z
" id="Times-Roman-31" transform="scale(0.015625)"/>
       </defs>
       <use xlink:href="#Times-Roman-31"/>
       <use x="50" xlink:href="#Times-Roman-30"/>
      </g>
     </g>
    </g>
    <g id="text_7">
     <!-- Radius [kpc] -->
     <g transform="translate(127.720313 237.471875)scale(0.1 -0.1)">
      <defs>
       <path d="M 1272 2191 
Q 1963 2216 2259 2334 
Q 2769 2544 2769 3122 
Q 2769 3678 2313 3881 
Q 2069 3991 1666 3991 
Q 1394 3991 1333 3952 
Q 1272 3913 1272 3769 
L 1272 2191 
z
M 72 116 
Q 441 150 531 259 
Q 622 369 622 769 
L 622 3541 
Q 622 3878 520 3983 
Q 419 4088 72 4116 
L 72 4234 
L 1844 4234 
Q 2397 4234 2766 4094 
Q 3466 3828 3466 3116 
Q 3466 2638 3155 2381 
Q 2844 2125 2309 2044 
L 3628 422 
Q 3750 272 3872 203 
Q 3994 134 4184 116 
L 4184 0 
L 3153 0 
L 1628 1969 
L 1272 1953 
L 1272 694 
Q 1272 338 1380 242 
Q 1488 147 1850 116 
L 1850 0 
L 72 0 
L 72 116 
z
" id="Times-Roman-52" transform="scale(0.015625)"/>
       <path d="M 1834 1731 
Q 1475 1613 1241 1469 
Q 791 1191 791 838 
Q 791 553 978 419 
Q 1100 331 1250 331 
Q 1456 331 1645 447 
Q 1834 563 1834 741 
L 1834 1731 
z
M 234 622 
Q 234 1075 688 1378 
Q 975 1566 1834 1888 
L 1834 2153 
Q 1834 2472 1772 2597 
Q 1666 2806 1331 2806 
Q 1172 2806 1028 2725 
Q 884 2641 884 2494 
Q 884 2456 900 2367 
Q 916 2278 916 2253 
Q 916 2078 800 2009 
Q 734 1969 644 1969 
Q 503 1969 428 2061 
Q 353 2153 353 2266 
Q 353 2484 623 2723 
Q 894 2963 1416 2963 
Q 2022 2963 2238 2569 
Q 2353 2353 2353 1941 
L 2353 688 
Q 2353 506 2378 438 
Q 2419 316 2547 316 
Q 2619 316 2666 337 
Q 2713 359 2828 444 
L 2828 281 
Q 2728 159 2613 81 
Q 2438 -38 2256 -38 
Q 2044 -38 1948 100 
Q 1853 238 1844 428 
Q 1606 222 1438 122 
Q 1153 -47 897 -47 
Q 628 -47 431 142 
Q 234 331 234 622 
z
M 1425 2963 
L 1425 2963 
z
" id="Times-Roman-61" transform="scale(0.015625)"/>
       <path d="M 1516 2953 
Q 1744 2953 1934 2853 
Q 2059 2788 2175 2672 
L 2175 3666 
Q 2175 3856 2133 3928 
Q 2091 4000 1931 4000 
Q 1894 4000 1866 3997 
Q 1838 3994 1741 3984 
L 1741 4088 
L 1997 4153 
Q 2138 4191 2278 4231 
Q 2419 4272 2525 4309 
Q 2575 4325 2691 4369 
L 2709 4363 
L 2703 4034 
Q 2700 3856 2697 3667 
Q 2694 3478 2694 3294 
L 2688 741 
Q 2688 538 2738 456 
Q 2788 375 3003 375 
Q 3038 375 3072 376 
Q 3106 378 3141 384 
L 3141 281 
Q 3122 275 2688 125 
L 2197 -59 
L 2175 -31 
L 2175 353 
Q 2000 163 1872 81 
Q 1644 -59 1344 -59 
Q 813 -59 483 352 
Q 153 763 153 1303 
Q 153 1981 548 2467 
Q 944 2953 1516 2953 
z
M 1631 278 
Q 1875 278 2025 422 
Q 2175 566 2175 694 
L 2175 2034 
Q 2175 2441 1958 2608 
Q 1741 2775 1534 2775 
Q 1141 2775 922 2426 
Q 703 2078 703 1569 
Q 703 1066 936 672 
Q 1169 278 1631 278 
z
" id="Times-Roman-64" transform="scale(0.015625)"/>
       <path d="M 525 4034 
Q 525 4169 619 4266 
Q 713 4363 850 4363 
Q 984 4363 1079 4267 
Q 1175 4172 1175 4034 
Q 1175 3900 1079 3804 
Q 984 3709 850 3709 
Q 713 3709 619 3804 
Q 525 3900 525 4034 
z
M 125 88 
Q 459 119 546 201 
Q 634 284 634 650 
L 634 2141 
Q 634 2344 606 2422 
Q 559 2550 409 2550 
Q 375 2550 342 2544 
Q 309 2538 153 2494 
L 153 2591 
L 288 2634 
Q 834 2813 1050 2903 
Q 1138 2941 1163 2941 
Q 1169 2919 1169 2894 
L 1169 650 
Q 1169 294 1255 203 
Q 1341 113 1644 88 
L 1644 0 
L 125 0 
L 125 88 
z
" id="Times-Roman-69" transform="scale(0.015625)"/>
       <path d="M 991 2894 
L 991 894 
Q 991 681 1050 553 
Q 1166 316 1475 316 
Q 1688 316 1891 456 
Q 2006 534 2125 672 
L 2125 2384 
Q 2125 2625 2031 2700 
Q 1938 2775 1656 2791 
L 1656 2894 
L 2666 2894 
L 2666 694 
Q 2666 481 2742 401 
Q 2819 322 3066 331 
L 3066 244 
Q 2894 197 2812 173 
Q 2731 150 2541 88 
Q 2459 59 2184 -47 
Q 2169 -47 2166 -33 
Q 2163 -19 2163 0 
L 2163 503 
Q 1950 250 1775 128 
Q 1509 -59 1213 -59 
Q 941 -59 700 134 
Q 456 325 456 775 
L 456 2397 
Q 456 2647 350 2731 
Q 281 2784 56 2806 
L 56 2894 
L 991 2894 
z
M 1603 2931 
L 1603 2931 
z
" id="Times-Roman-75" transform="scale(0.015625)"/>
       <path d="M 331 984 
L 434 984 
Q 506 628 628 438 
Q 847 88 1269 88 
Q 1503 88 1639 217 
Q 1775 347 1775 553 
Q 1775 684 1697 806 
Q 1619 928 1422 1044 
L 1072 1244 
Q 688 1450 506 1659 
Q 325 1869 325 2153 
Q 325 2503 575 2728 
Q 825 2953 1203 2953 
Q 1369 2953 1567 2890 
Q 1766 2828 1791 2828 
Q 1847 2828 1872 2843 
Q 1897 2859 1916 2894 
L 1991 2894 
L 2013 2022 
L 1916 2022 
Q 1853 2325 1747 2494 
Q 1553 2806 1188 2806 
Q 969 2806 844 2672 
Q 719 2538 719 2356 
Q 719 2069 1150 1844 
L 1563 1622 
Q 2228 1259 2228 778 
Q 2228 409 1951 175 
Q 1675 -59 1228 -59 
Q 1041 -59 803 3 
Q 566 66 522 66 
Q 484 66 456 39 
Q 428 13 413 -25 
L 331 -25 
L 331 984 
z
M 1247 2953 
L 1247 2953 
z
" id="Times-Roman-73" transform="scale(0.015625)"/>
       <path id="Times-Roman-20" transform="scale(0.015625)"/>
       <path d="M 563 4234 
L 1909 4234 
L 1909 4081 
L 1341 4081 
Q 1153 4081 1088 3963 
Q 1050 3900 1050 3791 
L 1050 -513 
Q 1050 -656 1091 -725 
Q 1159 -847 1363 -847 
L 1909 -847 
L 1909 -1009 
L 563 -1009 
L 563 4234 
z
" id="Times-Roman-5b" transform="scale(0.015625)"/>
       <path d="M 13 88 
Q 313 109 408 187 
Q 503 266 503 525 
L 503 3656 
Q 503 3878 428 3937 
Q 353 3997 213 3997 
Q 153 3997 109 3994 
Q 66 3991 13 3984 
L 13 4072 
L 294 4147 
Q 616 4231 841 4306 
Q 978 4353 1000 4353 
Q 1019 4353 1023 4345 
Q 1028 4338 1028 4309 
L 1028 1681 
L 1894 2444 
Q 1988 2528 2020 2578 
Q 2053 2628 2053 2666 
Q 2053 2738 1983 2756 
Q 1913 2775 1731 2784 
L 1731 2872 
L 3034 2872 
L 3034 2784 
Q 2684 2763 2471 2645 
Q 2259 2528 1656 1975 
L 1472 1806 
L 2050 1056 
Q 2494 481 2719 292 
Q 2944 103 3197 81 
L 3197 0 
L 1806 0 
L 1806 88 
L 1916 94 
Q 1969 97 2012 115 
Q 2056 134 2056 178 
Q 2056 213 2040 242 
Q 2025 272 1997 309 
L 1028 1584 
L 1028 428 
Q 1028 213 1188 141 
Q 1281 97 1509 94 
L 1509 0 
L 13 0 
L 13 88 
z
" id="Times-Roman-6b" transform="scale(0.015625)"/>
       <path d="M 1022 575 
Q 1103 363 1264 258 
Q 1425 153 1644 153 
Q 1981 153 2220 489 
Q 2459 825 2459 1425 
Q 2459 2000 2211 2284 
Q 1963 2569 1634 2569 
Q 1403 2569 1212 2426 
Q 1022 2284 1022 2147 
L 1022 575 
z
M 28 -1291 
Q 322 -1272 401 -1165 
Q 481 -1059 481 -831 
L 481 2169 
Q 481 2406 423 2473 
Q 366 2541 206 2541 
Q 172 2541 142 2537 
Q 113 2534 56 2525 
L 56 2628 
L 353 2725 
Q 369 2728 981 2941 
Q 997 2941 1005 2927 
Q 1013 2913 1013 2894 
L 1013 2472 
Q 1219 2678 1375 2778 
Q 1656 2953 1953 2953 
Q 2384 2953 2695 2586 
Q 3006 2219 3006 1581 
Q 3006 956 2632 446 
Q 2259 -63 1694 -63 
Q 1519 -63 1391 -19 
Q 1191 47 1022 222 
L 1022 -800 
Q 1022 -1116 1125 -1187 
Q 1228 -1259 1575 -1284 
L 1575 -1394 
L 28 -1394 
L 28 -1291 
z
" id="Times-Roman-70" transform="scale(0.015625)"/>
       <path d="M 1591 2947 
Q 1981 2947 2264 2745 
Q 2547 2544 2547 2303 
Q 2547 2200 2475 2111 
Q 2403 2022 2253 2022 
Q 2144 2022 2061 2097 
Q 1978 2172 1941 2316 
L 1903 2466 
Q 1863 2631 1763 2700 
Q 1659 2766 1491 2766 
Q 1134 2766 889 2455 
Q 644 2144 644 1628 
Q 644 1156 914 781 
Q 1184 406 1644 406 
Q 1969 406 2222 619 
Q 2366 741 2547 1006 
L 2634 953 
Q 2456 578 2259 359 
Q 1881 -59 1384 -59 
Q 897 -59 522 325 
Q 147 709 147 1369 
Q 147 2016 556 2481 
Q 966 2947 1591 2947 
z
M 1453 2947 
L 1453 2947 
z
" id="Times-Roman-63" transform="scale(0.015625)"/>
       <path d="M 1563 -1009 
L 213 -1009 
L 213 -853 
L 784 -853 
Q 969 -853 1038 -738 
Q 1072 -675 1072 -566 
L 1072 3741 
Q 1072 3894 1011 3983 
Q 950 4072 763 4072 
L 213 4072 
L 213 4234 
L 1563 4234 
L 1563 -1009 
z
" id="Times-Roman-5d" transform="scale(0.015625)"/>
      </defs>
      <use xlink:href="#Times-Roman-52"/>
      <use x="66.699219" xlink:href="#Times-Roman-61"/>
      <use x="111.083984" xlink:href="#Times-Roman-64"/>
      <use x="161.083984" xlink:href="#Times-Roman-69"/>
      <use x="188.867188" xlink:href="#Times-Roman-75"/>
      <use x="238.867188" xlink:href="#Times-Roman-73"/>
      <use x="277.783203" xlink:href="#Times-Roman-20"/>
      <use x="302.783203" xlink:href="#Times-Roman-5b"/>
      <use x="336.083984" xlink:href="#Times-Roman-6b"/>
      <use x="386.083984" xlink:href="#Times-Roman-70"/>
      <use x="436.083984" xlink:href="#Times-Roman-63"/>
      <use x="480.46875" xlink:href="#Times-Roman-5d"/>
     </g>
    </g>
   </g>
   <g id="matplotlib.axis_2">
    <g id="ytick_1">
     <g id="line2d_13">
      <defs>
       <path d="M 0 0 
L 3.5 0 
" id="m61d1f25b8c" style="stroke:#000000;stroke-width:0.8;"/>
      </defs>
      <g>
       <use style="stroke:#000000;stroke-width:0.8;" x="37.7" xlink:href="#m61d1f25b8c" y="205.233564"/>
      </g>
     </g>
     <g id="line2d_14">
      <defs>
       <path d="M 0 0 
L -3.5 0 
" id="m199a2c2f16" style="stroke:#000000;stroke-width:0.8;"/>
      </defs>
      <g>
       <use style="stroke:#000000;stroke-width:0.8;" x="269.11875" xlink:href="#m199a2c2f16" y="205.233564"/>
      </g>
     </g>
     <g id="text_8">
      <!-- 0.0 -->
      <g transform="translate(21.7 208.661689)scale(0.1 -0.1)">
       <defs>
        <path d="M 1044 -75 
Q 894 -75 791 29 
Q 688 134 688 281 
Q 688 428 792 531 
Q 897 634 1044 634 
Q 1191 634 1294 531 
Q 1397 428 1397 281 
Q 1397 134 1295 29 
Q 1194 -75 1044 -75 
z
" id="Times-Roman-2e" transform="scale(0.015625)"/>
       </defs>
       <use xlink:href="#Times-Roman-30"/>
       <use x="50" xlink:href="#Times-Roman-2e"/>
       <use x="75" xlink:href="#Times-Roman-30"/>
      </g>
     </g>
    </g>
    <g id="ytick_2">
     <g id="line2d_15">
      <g>
       <use style="stroke:#000000;stroke-width:0.8;" x="37.7" xlink:href="#m61d1f25b8c" y="180.800384"/>
      </g>
     </g>
     <g id="line2d_16">
      <g>
       <use style="stroke:#000000;stroke-width:0.8;" x="269.11875" xlink:href="#m199a2c2f16" y="180.800384"/>
      </g>
     </g>
     <g id="text_9">
      <!-- 0.5 -->
      <g transform="translate(21.7 184.228509)scale(0.1 -0.1)">
       <defs>
        <path d="M 478 572 
Q 656 572 945 370 
Q 1234 169 1391 169 
Q 1750 169 2019 486 
Q 2288 803 2288 1266 
Q 2288 2075 1425 2431 
Q 947 2628 534 2628 
Q 466 2628 448 2633 
Q 431 2638 406 2666 
Q 413 2691 417 2708 
Q 422 2725 428 2741 
L 1109 4234 
L 2450 4234 
Q 2550 4234 2604 4268 
Q 2659 4303 2747 4397 
L 2797 4353 
L 2553 3775 
Q 2541 3747 2484 3739 
Q 2428 3731 2363 3731 
L 1153 3731 
L 888 3184 
Q 1400 3097 1638 3019 
Q 2028 2888 2291 2631 
Q 2516 2409 2631 2132 
Q 2747 1856 2747 1547 
Q 2747 856 2255 393 
Q 1763 -69 1009 -69 
Q 703 -69 516 -9 
Q 203 88 203 338 
Q 203 431 270 501 
Q 338 572 478 572 
z
" id="Times-Roman-35" transform="scale(0.015625)"/>
       </defs>
       <use xlink:href="#Times-Roman-30"/>
       <use x="50" xlink:href="#Times-Roman-2e"/>
       <use x="75" xlink:href="#Times-Roman-35"/>
      </g>
     </g>
    </g>
    <g id="ytick_3">
     <g id="line2d_17">
      <g>
       <use style="stroke:#000000;stroke-width:0.8;" x="37.7" xlink:href="#m61d1f25b8c" y="156.367204"/>
      </g>
     </g>
     <g id="line2d_18">
      <g>
       <use style="stroke:#000000;stroke-width:0.8;" x="269.11875" xlink:href="#m199a2c2f16" y="156.367204"/>
      </g>
     </g>
     <g id="text_10">
      <!-- 1.0 -->
      <g transform="translate(21.7 159.795329)scale(0.1 -0.1)">
       <use xlink:href="#Times-Roman-31"/>
       <use x="50" xlink:href="#Times-Roman-2e"/>
       <use x="75" xlink:href="#Times-Roman-30"/>
      </g>
     </g>
    </g>
    <g id="ytick_4">
     <g id="line2d_19">
      <g>
       <use style="stroke:#000000;stroke-width:0.8;" x="37.7" xlink:href="#m61d1f25b8c" y="131.934025"/>
      </g>
     </g>
     <g id="line2d_20">
      <g>
       <use style="stroke:#000000;stroke-width:0.8;" x="269.11875" xlink:href="#m199a2c2f16" y="131.934025"/>
      </g>
     </g>
     <g id="text_11">
      <!-- 1.5 -->
      <g transform="translate(21.7 135.36215)scale(0.1 -0.1)">
       <use xlink:href="#Times-Roman-31"/>
       <use x="50" xlink:href="#Times-Roman-2e"/>
       <use x="75" xlink:href="#Times-Roman-35"/>
      </g>
     </g>
    </g>
    <g id="ytick_5">
     <g id="line2d_21">
      <g>
       <use style="stroke:#000000;stroke-width:0.8;" x="37.7" xlink:href="#m61d1f25b8c" y="107.500845"/>
      </g>
     </g>
     <g id="line2d_22">
      <g>
       <use style="stroke:#000000;stroke-width:0.8;" x="269.11875" xlink:href="#m199a2c2f16" y="107.500845"/>
      </g>
     </g>
     <g id="text_12">
      <!-- 2.0 -->
      <g transform="translate(21.7 110.92897)scale(0.1 -0.1)">
       <use xlink:href="#Times-Roman-32"/>
       <use x="50" xlink:href="#Times-Roman-2e"/>
       <use x="75" xlink:href="#Times-Roman-30"/>
      </g>
     </g>
    </g>
    <g id="ytick_6">
     <g id="line2d_23">
      <g>
       <use style="stroke:#000000;stroke-width:0.8;" x="37.7" xlink:href="#m61d1f25b8c" y="83.067665"/>
      </g>
     </g>
     <g id="line2d_24">
      <g>
       <use style="stroke:#000000;stroke-width:0.8;" x="269.11875" xlink:href="#m199a2c2f16" y="83.067665"/>
      </g>
     </g>
     <g id="text_13">
      <!-- 2.5 -->
      <g transform="translate(21.7 86.49579)scale(0.1 -0.1)">
       <use xlink:href="#Times-Roman-32"/>
       <use x="50" xlink:href="#Times-Roman-2e"/>
       <use x="75" xlink:href="#Times-Roman-35"/>
      </g>
     </g>
    </g>
    <g id="ytick_7">
     <g id="line2d_25">
      <g>
       <use style="stroke:#000000;stroke-width:0.8;" x="37.7" xlink:href="#m61d1f25b8c" y="58.634485"/>
      </g>
     </g>
     <g id="line2d_26">
      <g>
       <use style="stroke:#000000;stroke-width:0.8;" x="269.11875" xlink:href="#m199a2c2f16" y="58.634485"/>
      </g>
     </g>
     <g id="text_14">
      <!-- 3.0 -->
      <g transform="translate(21.7 62.06261)scale(0.1 -0.1)">
       <defs>
        <path d="M 497 544 
Q 669 544 951 366 
Q 1234 188 1431 188 
Q 1869 188 2081 483 
Q 2294 778 2294 1125 
Q 2294 1459 2122 1713 
Q 1831 2141 1141 2141 
Q 1100 2141 1062 2139 
Q 1025 2138 975 2131 
L 969 2213 
Q 1469 2394 1756 2628 
Q 2044 2863 2044 3247 
Q 2044 3588 1817 3766 
Q 1591 3944 1300 3944 
Q 956 3944 694 3691 
Q 550 3553 384 3266 
L 288 3288 
Q 413 3763 753 4047 
Q 1094 4331 1541 4331 
Q 2019 4331 2280 4068 
Q 2541 3806 2541 3463 
Q 2541 3159 2325 2906 
Q 2203 2763 1947 2584 
Q 2247 2456 2428 2284 
Q 2769 1956 2769 1453 
Q 2769 859 2301 406 
Q 1834 -47 972 -47 
Q 588 -47 433 67 
Q 278 181 278 313 
Q 278 394 329 469 
Q 381 544 497 544 
z
" id="Times-Roman-33" transform="scale(0.015625)"/>
       </defs>
       <use xlink:href="#Times-Roman-33"/>
       <use x="50" xlink:href="#Times-Roman-2e"/>
       <use x="75" xlink:href="#Times-Roman-30"/>
      </g>
     </g>
    </g>
    <g id="ytick_8">
     <g id="line2d_27">
      <g>
       <use style="stroke:#000000;stroke-width:0.8;" x="37.7" xlink:href="#m61d1f25b8c" y="34.201306"/>
      </g>
     </g>
     <g id="line2d_28">
      <g>
       <use style="stroke:#000000;stroke-width:0.8;" x="269.11875" xlink:href="#m199a2c2f16" y="34.201306"/>
      </g>
     </g>
     <g id="text_15">
      <!-- 3.5 -->
      <g transform="translate(21.7 37.629431)scale(0.1 -0.1)">
       <use xlink:href="#Times-Roman-33"/>
       <use x="50" xlink:href="#Times-Roman-2e"/>
       <use x="75" xlink:href="#Times-Roman-35"/>
      </g>
     </g>
    </g>
    <g id="text_16">
     <!-- Mass density [$M_{\odot}/\mathrm{kpc}^3$] -->
     <g transform="translate(15.5 164.11875)rotate(-90)scale(0.1 -0.1)">
      <defs>
       <path d="M 72 116 
Q 469 156 581 295 
Q 694 434 694 941 
L 694 3541 
Q 694 3888 584 3992 
Q 475 4097 88 4116 
L 88 4234 
L 1353 4234 
L 2834 1006 
L 4250 4234 
L 5525 4234 
L 5525 4116 
Q 5169 4091 5066 3986 
Q 4963 3881 4963 3541 
L 4963 694 
Q 4963 344 5066 245 
Q 5169 147 5525 116 
L 5525 0 
L 3731 0 
L 3731 116 
Q 4119 147 4214 255 
Q 4309 363 4309 769 
L 4309 3644 
L 2672 0 
L 2584 0 
L 975 3494 
L 975 941 
Q 975 416 1128 256 
Q 1228 153 1575 116 
L 1575 0 
L 72 0 
L 72 116 
z
" id="Times-Roman-4d" transform="scale(0.015625)"/>
       <path d="M 1466 2931 
Q 1906 2931 2237 2626 
Q 2569 2322 2569 1763 
L 584 1763 
Q 616 1038 912 706 
Q 1209 375 1616 375 
Q 1944 375 2169 547 
Q 2394 719 2584 1034 
L 2694 997 
Q 2566 600 2214 262 
Q 1863 -75 1353 -75 
Q 766 -75 445 369 
Q 125 813 125 1391 
Q 125 2019 497 2475 
Q 869 2931 1466 2931 
z
M 1284 2703 
Q 928 2703 741 2388 
Q 641 2219 597 1963 
L 1916 1963 
Q 1881 2275 1797 2428 
Q 1644 2703 1284 2703 
z
M 1425 2931 
L 1425 2931 
z
" id="Times-Roman-65" transform="scale(0.015625)"/>
       <path d="M 116 88 
Q 338 116 427 198 
Q 516 281 516 569 
L 516 2153 
Q 516 2353 478 2434 
Q 419 2553 234 2553 
Q 206 2553 176 2550 
Q 147 2547 103 2541 
L 103 2650 
Q 231 2688 709 2844 
L 1003 2941 
Q 1025 2941 1029 2925 
Q 1034 2909 1034 2881 
L 1034 2422 
Q 1322 2691 1484 2791 
Q 1728 2944 1991 2944 
Q 2203 2944 2378 2822 
Q 2716 2584 2716 1975 
L 2716 516 
Q 2716 291 2806 191 
Q 2897 91 3109 88 
L 3109 0 
L 1775 0 
L 1775 88 
Q 2003 119 2093 214 
Q 2184 309 2184 628 
L 2184 1963 
Q 2184 2231 2084 2407 
Q 1984 2584 1716 2584 
Q 1531 2584 1341 2459 
Q 1234 2388 1066 2222 
L 1066 472 
Q 1066 247 1166 170 
Q 1266 94 1481 88 
L 1481 0 
L 116 0 
L 116 88 
z
M 1603 2944 
L 1603 2944 
z
" id="Times-Roman-6e" transform="scale(0.015625)"/>
       <path d="M 1628 2881 
L 1628 2656 
L 991 2656 
L 984 856 
Q 984 619 1025 497 
Q 1100 281 1319 281 
Q 1431 281 1514 334 
Q 1597 388 1703 503 
L 1784 434 
L 1716 341 
Q 1553 122 1372 31 
Q 1191 -59 1022 -59 
Q 653 -59 522 269 
Q 450 447 450 763 
L 450 2656 
L 109 2656 
Q 94 2666 86 2675 
Q 78 2684 78 2700 
Q 78 2731 92 2748 
Q 106 2766 181 2828 
Q 397 3006 492 3117 
Q 588 3228 941 3703 
Q 981 3703 989 3697 
Q 997 3691 997 3650 
L 997 2881 
L 1628 2881 
z
" id="Times-Roman-74" transform="scale(0.015625)"/>
       <path d="M 88 2872 
L 1406 2872 
L 1406 2775 
Q 1250 2772 1175 2747 
Q 1031 2706 1031 2588 
Q 1031 2544 1047 2498 
Q 1063 2453 1103 2363 
L 1834 741 
L 2422 2375 
Q 2431 2400 2451 2487 
Q 2472 2575 2472 2606 
Q 2472 2688 2415 2725 
Q 2359 2763 2272 2769 
L 2175 2775 
L 2175 2872 
L 3034 2872 
L 3034 2775 
Q 2906 2759 2842 2687 
Q 2778 2616 2731 2488 
L 1747 -119 
Q 1491 -794 1256 -1097 
Q 1022 -1400 663 -1400 
Q 488 -1400 334 -1312 
Q 181 -1225 181 -1034 
Q 181 -909 273 -829 
Q 366 -750 506 -750 
Q 588 -750 748 -809 
Q 909 -869 978 -869 
Q 1153 -869 1347 -462 
Q 1541 -56 1541 81 
Q 1541 109 1531 150 
Q 1522 191 1509 222 
L 509 2384 
Q 403 2616 323 2689 
Q 244 2763 88 2784 
L 88 2872 
z
M 1575 2931 
L 1575 2931 
z
" id="Times-Roman-79" transform="scale(0.015625)"/>
       <path d="M 5581 4179 
L 5581 4077 
Q 5318 4032 5225 3945 
Q 5133 3859 5062 3603 
L 4275 768 
Q 4186 448 4186 371 
Q 4186 243 4301 176 
Q 4416 109 4704 102 
L 4698 0 
L 2963 0 
L 2963 102 
Q 3277 134 3405 243 
Q 3533 352 3616 653 
L 4422 3590 
L 2016 0 
L 1907 0 
L 1510 3494 
L 755 755 
Q 698 550 698 410 
Q 698 134 1146 102 
L 1146 0 
L -115 0 
L -115 102 
Q 141 134 259 284 
Q 378 435 525 960 
L 1254 3526 
Q 1331 3789 1331 3859 
Q 1331 4051 858 4077 
L 858 4179 
L 2016 4179 
L 2374 1030 
L 4518 4179 
L 5581 4179 
z
" id="STIXGeneral-Italic-4d" transform="scale(0.015625)"/>
       <path d="M 2842 1619 
Q 2842 1453 2730 1331 
Q 2618 1210 2438 1210 
Q 2253 1210 2141 1322 
Q 2029 1434 2029 1619 
Q 2029 1792 2153 1907 
Q 2278 2022 2438 2022 
Q 2598 2022 2720 1907 
Q 2842 1792 2842 1619 
z
M 3936 3110 
Q 4557 2490 4557 1613 
Q 4557 736 3936 115 
Q 3315 -506 2438 -506 
Q 1562 -506 941 115 
Q 320 736 320 1613 
Q 320 2490 941 3110 
Q 1562 3731 2438 3731 
Q 3315 3731 3936 3110 
z
M 3635 413 
Q 4134 909 4134 1613 
Q 4134 2317 3635 2813 
Q 3136 3309 2438 3309 
Q 1741 3309 1241 2813 
Q 742 2317 742 1613 
Q 742 909 1241 413 
Q 1741 -83 2438 -83 
Q 3136 -83 3635 413 
z
" id="STIXGeneral-Regular-2299" transform="scale(0.015625)"/>
       <path d="M 1837 4326 
L 378 -90 
L -58 -90 
L 1408 4326 
L 1837 4326 
z
" id="STIXGeneral-Regular-2f" transform="scale(0.015625)"/>
       <path d="M 3232 0 
L 1837 0 
L 1837 96 
L 1958 96 
Q 2093 96 2093 192 
Q 2093 250 2022 339 
L 1062 1606 
L 1062 429 
Q 1062 262 1142 185 
Q 1222 109 1414 102 
L 1542 96 
L 1542 0 
L 45 0 
L 45 96 
Q 390 154 457 214 
Q 525 275 525 525 
L 525 3610 
Q 525 3840 467 3920 
Q 410 4000 250 4000 
Q 211 4000 45 3987 
L 45 4090 
L 237 4141 
Q 621 4243 1037 4371 
L 1062 4358 
L 1062 1670 
L 1939 2451 
Q 2086 2586 2086 2675 
Q 2086 2739 2019 2761 
Q 1952 2784 1766 2790 
L 1766 2880 
L 3072 2880 
L 3072 2784 
Q 2752 2784 2505 2646 
Q 2259 2509 1690 1978 
L 1504 1805 
L 2483 563 
Q 2829 122 3232 96 
L 3232 0 
z
" id="STIXGeneral-Regular-6b" transform="scale(0.015625)"/>
       <path d="M 1018 2931 
L 1018 2438 
Q 1421 2944 1939 2944 
Q 2406 2944 2707 2560 
Q 3008 2176 3008 1581 
Q 3008 883 2621 409 
Q 2234 -64 1664 -64 
Q 1466 -64 1328 -6 
Q 1190 51 1018 211 
L 1018 -794 
Q 1018 -1094 1120 -1180 
Q 1222 -1267 1581 -1274 
L 1581 -1389 
L 32 -1389 
L 32 -1280 
Q 314 -1254 397 -1171 
Q 480 -1088 480 -838 
L 480 2157 
Q 480 2381 429 2451 
Q 378 2522 218 2522 
Q 115 2522 58 2515 
L 58 2618 
Q 506 2752 979 2944 
L 1018 2931 
z
M 1018 2138 
L 1018 563 
Q 1018 422 1238 281 
Q 1459 141 1683 141 
Q 2029 141 2243 467 
Q 2458 794 2458 1325 
Q 2458 1888 2243 2224 
Q 2029 2560 1670 2560 
Q 1446 2560 1232 2419 
Q 1018 2278 1018 2138 
z
" id="STIXGeneral-Regular-70" transform="scale(0.015625)"/>
       <path d="M 2547 998 
L 2637 941 
Q 2362 403 2112 205 
Q 1786 -64 1376 -64 
Q 845 -64 502 336 
Q 160 736 160 1357 
Q 160 2170 698 2618 
Q 1094 2944 1562 2944 
Q 1965 2944 2256 2749 
Q 2547 2554 2547 2285 
Q 2547 2176 2457 2096 
Q 2368 2016 2246 2016 
Q 2022 2016 1939 2310 
L 1901 2451 
Q 1850 2630 1773 2694 
Q 1696 2758 1523 2758 
Q 1133 2758 893 2451 
Q 653 2144 653 1645 
Q 653 1094 928 745 
Q 1203 397 1645 397 
Q 1920 397 2118 528 
Q 2317 659 2547 998 
z
" id="STIXGeneral-Regular-63" transform="scale(0.015625)"/>
       <path d="M 390 3264 
L 288 3290 
Q 435 3770 748 4048 
Q 1062 4326 1542 4326 
Q 1990 4326 2265 4083 
Q 2541 3840 2541 3450 
Q 2541 2925 1946 2566 
Q 2298 2413 2477 2227 
Q 2758 1914 2758 1402 
Q 2758 890 2464 506 
Q 2246 211 1840 60 
Q 1434 -90 979 -90 
Q 262 -90 262 275 
Q 262 378 339 442 
Q 416 506 525 506 
Q 685 506 915 339 
Q 1197 141 1466 141 
Q 1818 141 2058 425 
Q 2298 710 2298 1120 
Q 2298 1856 1632 2048 
Q 1434 2112 979 2112 
L 979 2202 
Q 1338 2323 1517 2432 
Q 2035 2726 2035 3290 
Q 2035 3610 1852 3776 
Q 1670 3942 1344 3942 
Q 768 3942 390 3264 
z
" id="STIXGeneral-Regular-33" transform="scale(0.015625)"/>
      </defs>
      <use transform="translate(0 0.409375)" xlink:href="#Times-Roman-4d"/>
      <use transform="translate(88.916016 0.409375)" xlink:href="#Times-Roman-61"/>
      <use transform="translate(133.300781 0.409375)" xlink:href="#Times-Roman-73"/>
      <use transform="translate(172.216797 0.409375)" xlink:href="#Times-Roman-73"/>
      <use transform="translate(211.132812 0.409375)" xlink:href="#Times-Roman-20"/>
      <use transform="translate(236.132812 0.409375)" xlink:href="#Times-Roman-64"/>
      <use transform="translate(286.132812 0.409375)" xlink:href="#Times-Roman-65"/>
      <use transform="translate(330.517578 0.409375)" xlink:href="#Times-Roman-6e"/>
      <use transform="translate(380.517578 0.409375)" xlink:href="#Times-Roman-73"/>
      <use transform="translate(419.433594 0.409375)" xlink:href="#Times-Roman-69"/>
      <use transform="translate(447.216797 0.409375)" xlink:href="#Times-Roman-74"/>
      <use transform="translate(475 0.409375)" xlink:href="#Times-Roman-79"/>
      <use transform="translate(525 0.409375)" xlink:href="#Times-Roman-20"/>
      <use transform="translate(550 0.409375)" xlink:href="#Times-Roman-5b"/>
      <use transform="translate(583.300781 0.409375)" xlink:href="#STIXGeneral-Italic-4d"/>
      <use transform="translate(666.600769 -12.81875)scale(0.7)" xlink:href="#STIXGeneral-Regular-2299"/>
      <use transform="translate(724.350131 0.409375)" xlink:href="#STIXGeneral-Regular-2f"/>
      <use transform="translate(752.150119 0.409375)" xlink:href="#STIXGeneral-Regular-6b"/>
      <use transform="translate(802.150104 0.409375)" xlink:href="#STIXGeneral-Regular-70"/>
      <use transform="translate(852.150089 0.409375)" xlink:href="#STIXGeneral-Regular-63"/>
      <use transform="translate(898.093364 35.684375)scale(0.7)" xlink:href="#STIXGeneral-Regular-33"/>
      <use transform="translate(937.502728 0.409375)" xlink:href="#Times-Roman-5d"/>
     </g>
    </g>
    <g id="text_17">
     <!-- 1e10 -->
     <g transform="translate(37.7 14.05625)scale(0.1 -0.1)">
      <use xlink:href="#Times-Roman-31"/>
      <use x="50" xlink:href="#Times-Roman-65"/>
      <use x="94.384766" xlink:href="#Times-Roman-31"/>
      <use x="144.384766" xlink:href="#Times-Roman-30"/>
     </g>
    </g>
   </g>
   <g id="line2d_29">
    <path clip-path="url(#p49261eb6ea)" d="M 48.219034 26.011932 
L 58.738068 196.239566 
L 69.257102 199.286729 
L 79.776136 200.932943 
L 90.29517 201.996138 
L 100.814205 202.739224 
L 111.333239 203.282167 
L 121.852273 203.690258 
L 132.371307 204.003032 
L 142.890341 204.246181 
L 153.409375 204.437249 
L 163.928409 204.588662 
L 174.447443 204.709463 
L 184.966477 204.806376 
L 195.485511 204.884483 
L 206.004545 204.947679 
L 216.52358 204.99898 
L 227.042614 205.040746 
L 237.561648 205.074834 
L 248.080682 205.102717 
L 258.599716 205.125568 
" style="fill:none;stroke:#1f77b4;stroke-linecap:square;"/>
   </g>
   <g id="patch_3">
    <path d="M 37.7 214.08125 
L 37.7 17.05625 
" style="fill:none;stroke:#000000;stroke-linecap:square;stroke-linejoin:miter;stroke-width:0.8;"/>
   </g>
   <g id="patch_4">
    <path d="M 269.11875 214.08125 
L 269.11875 17.05625 
" style="fill:none;stroke:#000000;stroke-linecap:square;stroke-linejoin:miter;stroke-width:0.8;"/>
   </g>
   <g id="patch_5">
    <path d="M 37.7 214.08125 
L 269.11875 214.08125 
" style="fill:none;stroke:#000000;stroke-linecap:square;stroke-linejoin:miter;stroke-width:0.8;"/>
   </g>
   <g id="patch_6">
    <path d="M 37.7 17.05625 
L 269.11875 17.05625 
" style="fill:none;stroke:#000000;stroke-linecap:square;stroke-linejoin:miter;stroke-width:0.8;"/>
   </g>
   <g id="legend_1">
    <g id="patch_7">
     <path d="M 62.489062 39.234375 
L 262.11875 39.234375 
Q 264.11875 39.234375 264.11875 37.234375 
L 264.11875 24.05625 
Q 264.11875 22.05625 262.11875 22.05625 
L 62.489062 22.05625 
Q 60.489062 22.05625 60.489062 24.05625 
L 60.489062 37.234375 
Q 60.489062 39.234375 62.489062 39.234375 
z
" style="fill:#ffffff;opacity:0.8;stroke:#cccccc;stroke-linejoin:miter;"/>
    </g>
    <g id="line2d_30">
     <path d="M 64.489062 29.55625 
L 84.489062 29.55625 
" style="fill:none;stroke:#1f77b4;stroke-linecap:square;"/>
    </g>
    <g id="line2d_31"/>
    <g id="text_18">
     <!-- totM=1.0e+11, Reff=5.0, n=1.0, invq=5.0 -->
     <g transform="translate(92.489062 33.05625)scale(0.1 -0.1)">
      <defs>
       <path d="M 163 1450 
Q 163 2072 558 2501 
Q 953 2931 1575 2931 
Q 2194 2931 2600 2525 
Q 3006 2119 3006 1444 
Q 3006 822 2612 362 
Q 2219 -97 1594 -97 
Q 994 -97 578 343 
Q 163 784 163 1450 
z
M 1488 2744 
Q 1241 2744 1059 2581 
Q 747 2297 747 1600 
Q 747 1044 998 562 
Q 1250 81 1697 81 
Q 2047 81 2236 403 
Q 2425 725 2425 1247 
Q 2425 1788 2184 2266 
Q 1944 2744 1488 2744 
z
M 1603 2931 
L 1603 2931 
z
" id="Times-Roman-6f" transform="scale(0.015625)"/>
       <path d="M 3422 1191 
L 3422 753 
L 191 753 
L 191 1191 
L 3422 1191 
z
M 3422 2481 
L 3422 2044 
L 191 2044 
L 191 2481 
L 3422 2481 
z
" id="Times-Roman-3d" transform="scale(0.015625)"/>
       <path d="M 1591 3234 
L 2028 3234 
L 2028 1834 
L 3422 1834 
L 3422 1397 
L 2028 1397 
L 2028 0 
L 1591 0 
L 1591 1397 
L 191 1397 
L 191 1834 
L 1591 1834 
L 1591 3234 
z
" id="Times-Roman-2b" transform="scale(0.015625)"/>
       <path d="M 1569 66 
Q 1569 -250 1341 -522 
Q 1113 -794 850 -913 
L 791 -788 
Q 1091 -619 1205 -422 
Q 1319 -225 1319 -94 
Q 1319 -50 1291 -37 
Q 1263 -25 1231 -25 
L 1022 -47 
Q 891 -47 781 39 
Q 672 125 672 288 
Q 672 413 762 531 
Q 853 650 1059 650 
Q 1256 650 1412 495 
Q 1569 341 1569 66 
z
" id="Times-Roman-2c" transform="scale(0.015625)"/>
       <path d="M 125 88 
Q 456 103 561 211 
Q 666 319 666 666 
L 666 2672 
L 131 2672 
L 131 2881 
L 666 2881 
Q 666 3375 800 3716 
Q 1056 4369 1741 4369 
Q 2016 4369 2233 4259 
Q 2450 4150 2450 3966 
Q 2450 3863 2375 3781 
Q 2300 3700 2194 3700 
Q 2103 3700 2037 3754 
Q 1972 3809 1881 3947 
L 1828 4028 
Q 1784 4094 1725 4139 
Q 1666 4184 1559 4184 
Q 1322 4184 1238 3950 
Q 1191 3825 1191 3622 
L 1191 2881 
L 1975 2881 
L 1975 2672 
L 1197 2672 
L 1197 666 
Q 1197 313 1292 214 
Q 1388 116 1791 88 
L 1791 0 
L 125 0 
L 125 88 
z
" id="Times-Roman-66" transform="scale(0.015625)"/>
       <path d="M 1375 2903 
L 1375 2806 
Q 1213 2788 1145 2756 
Q 1078 2725 1078 2619 
Q 1078 2569 1092 2523 
Q 1106 2478 1141 2391 
L 1791 775 
L 2353 2206 
Q 2394 2309 2430 2421 
Q 2466 2534 2466 2594 
Q 2466 2716 2350 2769 
Q 2281 2797 2163 2806 
L 2163 2903 
L 3050 2903 
L 3050 2806 
Q 2897 2794 2830 2705 
Q 2763 2616 2634 2294 
L 1731 44 
Q 1706 -16 1690 -37 
Q 1675 -59 1647 -59 
Q 1616 -59 1594 -23 
Q 1572 13 1547 66 
L 591 2353 
Q 475 2631 344 2731 
Q 266 2788 116 2806 
L 116 2903 
L 1375 2903 
z
" id="Times-Roman-76" transform="scale(0.015625)"/>
       <path d="M 1525 334 
Q 1600 334 1726 359 
Q 1853 384 1963 444 
Q 2113 525 2144 587 
Q 2175 650 2175 822 
L 2175 2141 
Q 2175 2388 2100 2525 
Q 1959 2775 1569 2775 
Q 1125 2775 914 2408 
Q 703 2041 703 1569 
Q 703 1016 917 675 
Q 1131 334 1525 334 
z
M 1597 2947 
Q 1809 2947 1972 2888 
Q 2081 2850 2303 2725 
L 2650 2931 
Q 2678 2944 2694 2947 
Q 2709 2934 2712 2928 
Q 2716 2922 2716 2888 
L 2716 -913 
Q 2716 -1078 2775 -1159 
Q 2866 -1281 3125 -1306 
L 3125 -1394 
L 1613 -1394 
L 1613 -1291 
Q 1891 -1288 2027 -1197 
Q 2163 -1106 2163 -794 
L 2163 397 
Q 1944 181 1784 88 
Q 1522 -66 1194 -66 
Q 803 -66 478 295 
Q 153 656 153 1356 
Q 153 2000 554 2473 
Q 956 2947 1597 2947 
z
" id="Times-Roman-71" transform="scale(0.015625)"/>
      </defs>
      <use xlink:href="#Times-Roman-74"/>
      <use x="27.783203" xlink:href="#Times-Roman-6f"/>
      <use x="77.783203" xlink:href="#Times-Roman-74"/>
      <use x="105.566406" xlink:href="#Times-Roman-4d"/>
      <use x="194.482422" xlink:href="#Times-Roman-3d"/>
      <use x="250.878906" xlink:href="#Times-Roman-31"/>
      <use x="300.878906" xlink:href="#Times-Roman-2e"/>
      <use x="325.878906" xlink:href="#Times-Roman-30"/>
      <use x="375.878906" xlink:href="#Times-Roman-65"/>
      <use x="420.263672" xlink:href="#Times-Roman-2b"/>
      <use x="476.660156" xlink:href="#Times-Roman-31"/>
      <use x="526.660156" xlink:href="#Times-Roman-31"/>
      <use x="576.660156" xlink:href="#Times-Roman-2c"/>
      <use x="601.660156" xlink:href="#Times-Roman-20"/>
      <use x="626.660156" xlink:href="#Times-Roman-52"/>
      <use x="693.359375" xlink:href="#Times-Roman-65"/>
      <use x="737.744141" xlink:href="#Times-Roman-66"/>
      <use x="771.044922" xlink:href="#Times-Roman-66"/>
      <use x="804.345703" xlink:href="#Times-Roman-3d"/>
      <use x="860.742188" xlink:href="#Times-Roman-35"/>
      <use x="910.742188" xlink:href="#Times-Roman-2e"/>
      <use x="935.742188" xlink:href="#Times-Roman-30"/>
      <use x="985.742188" xlink:href="#Times-Roman-2c"/>
      <use x="1010.742188" xlink:href="#Times-Roman-20"/>
      <use x="1035.742188" xlink:href="#Times-Roman-6e"/>
      <use x="1085.742188" xlink:href="#Times-Roman-3d"/>
      <use x="1142.138672" xlink:href="#Times-Roman-31"/>
      <use x="1192.138672" xlink:href="#Times-Roman-2e"/>
      <use x="1217.138672" xlink:href="#Times-Roman-30"/>
      <use x="1267.138672" xlink:href="#Times-Roman-2c"/>
      <use x="1292.138672" xlink:href="#Times-Roman-20"/>
      <use x="1317.138672" xlink:href="#Times-Roman-69"/>
      <use x="1344.921875" xlink:href="#Times-Roman-6e"/>
      <use x="1394.921875" xlink:href="#Times-Roman-76"/>
      <use x="1444.921875" xlink:href="#Times-Roman-71"/>
      <use x="1494.921875" xlink:href="#Times-Roman-3d"/>
      <use x="1551.318359" xlink:href="#Times-Roman-35"/>
      <use x="1601.318359" xlink:href="#Times-Roman-2e"/>
      <use x="1626.318359" xlink:href="#Times-Roman-30"/>
     </g>
    </g>
   </g>
  </g>
 </g>
 <defs>
  <clipPath id="p49261eb6ea">
   <rect height="197.025" width="231.41875" x="37.7" y="17.05625"/>
  </clipPath>
 </defs>
</svg>
